<svg xmlns="http://www.w3.org/2000/svg" xmlns:xlink="http://www.w3.org/1999/xlink" viewBox="0 0 48 48"><defs><linearGradient xlink:href="#a" id="h" x1="284.8" x2="288.9" y1="-441.23" y2="-436.83" gradientUnits="userSpaceOnUse"/><linearGradient xlink:href="#a" id="g" x1="286.67" x2="289.77" y1="-439.48" y2="-436.71" gradientUnits="userSpaceOnUse"/><linearGradient xlink:href="#a" id="f" x1="275.94" x2="279.98" y1="-437.11" y2="-431.92" gradientUnits="userSpaceOnUse"/><linearGradient xlink:href="#a" id="e" x1="285.94" x2="289.39" y1="-439.94" y2="-436.44" gradientUnits="userSpaceOnUse"/><linearGradient xlink:href="#a" id="d" x1="286.51" x2="289.85" y1="-441.29" y2="-436.14" gradientUnits="userSpaceOnUse"/><linearGradient xlink:href="#a" id="c" x1="287.52" x2="289.68" y1="-439.75" y2="-436.32" gradientUnits="userSpaceOnUse"/><linearGradient xlink:href="#a" id="b" x1="271.02" x2="285.03" y1="-441.05" y2="-431.97" gradientUnits="userSpaceOnUse"/><linearGradient id="a"><stop offset="0" style="stop-color:#fff"/><stop offset="1" style="stop-color:#fff;stop-opacity:0"/></linearGradient><radialGradient id="i" cx="97.468" cy="-405.91" r="358.45" gradientTransform="matrix(.02129 0 0 .02759 323.37 -435.1)" gradientUnits="userSpaceOnUse"><stop offset="0" style="stop-color:#787974"/><stop offset="1" style="stop-color:#787974;stop-opacity:0"/></radialGradient></defs><path d="M280.5-445.5c-2.27 0-4.11 1.55-4.72 3.62-.69-.36-1.44-.62-2.28-.62-2.76 0-5 2.24-5 5 0 .58.16 1.11.34 1.62-1.37.78-2.34 2.19-2.34 3.88 0 2.48 2.02 4.5 4.5 4.5h19c2.48 0 4.5-2.02 4.5-4.5 0-1.69-.97-3.1-2.34-3.88.18-.51.34-1.04.34-1.62 0-2.76-2.24-5-5-5-.84 0-1.59.26-2.28.62-.61-2.07-2.45-3.62-4.72-3.62z" style="stroke:#888a85;stroke-miterlimit:2;fill:#c4c5c2" transform="translate(-264 459.97)"/><path d="M280.5-445c-2.19 0-3.72 1.34-4.4 3.84-.66-.34-1.54-.83-2.35-.83-2.72 0-4.76 1.94-4.76 4.55 0 .54.27 1.33.45 1.82-1.33.73-2.44 1.89-2.44 3.37 0 2.35 1.55 4.25 4.34 4.25h18.32c2.77 0 4.34-1.9 4.34-4.25 0-1.59-1.11-2.67-2.44-3.39.18-.49.47-1.26.47-1.8 0-2.61-2.12-4.57-4.78-4.57-.81 0-1.64.49-2.31.83-.65-2.42-2.25-3.82-4.44-3.82z" style="fill:url(#b)" transform="translate(-264 459.97)"/><path d="M291.69-437.59a3.313 3.313 0 1 1-6.63 0 3.313 3.313 0 1 1 6.63 0z" style="fill:#c4c5c2" transform="translate(-288.198 481.833) scale(1.0566)"/><path d="M291.69-437.59a3.313 3.313 0 1 1-6.63 0 3.313 3.313 0 1 1 6.63 0z" style="fill:url(#c)" transform="translate(-288.198 481.833) scale(1.0566)"/><path d="M271-438h20v9h-20z" style="fill:#c4c5c2" transform="translate(-264 459.97)"/><path d="M291.69-437.59a3.313 3.313 0 1 1-6.63 0 3.313 3.313 0 1 1 6.63 0z" style="fill:#c4c5c2" transform="translate(-254.17 424.281) scale(.90566)"/><path d="M291.69-437.59a3.313 3.313 0 1 1-6.63 0 3.313 3.313 0 1 1 6.63 0z" style="fill:#c4c5c2" transform="translate(-281.198 484.833) scale(1.0566)"/><path d="M291.69-437.59a3.313 3.313 0 1 1-6.63 0 3.313 3.313 0 1 1 6.63 0z" style="fill:url(#d)" transform="translate(-281.198 484.833) scale(1.0566)"/><path d="M291.69-437.59a3.313 3.313 0 1 1-6.63 0 3.313 3.313 0 1 1 6.63 0z" style="fill:#c4c5c2" transform="translate(-295.198 484.833) scale(1.0566)"/><path d="M291.69-437.59a3.313 3.313 0 1 1-6.63 0 3.313 3.313 0 1 1 6.63 0z" style="fill:url(#e)" transform="translate(-295.198 484.833) scale(1.0566)"/><path d="M280.47-440.97c-3.58 0-6.47 2.92-6.47 6.5 0 2.37 1.35 4.34 3.25 5.47h6.47c1.9-1.13 3.25-3.13 3.25-5.5 0-3.58-2.92-6.47-6.5-6.47z" style="fill:#c4c5c2" transform="translate(-265 459.97)"/><path d="M280.5-441a6.5 6.5 0 0 0-6.5 6.5c0 2.38 1.34 4.37 3.25 5.5h6.5c1.91-1.13 3.25-3.12 3.25-5.5a6.5 6.5 0 0 0-6.5-6.5z" style="fill:url(#f)" transform="translate(-265 459.97)"/><path d="M291.69-437.59a3.313 3.313 0 1 1-6.63 0 3.313 3.313 0 1 1 6.63 0z" style="fill:url(#g)" transform="translate(-254.17 424.281) scale(.90566)"/><path d="M292.96-437.33c-.01 2.68-3.27 3.71-3.27 3.71s2.35-1.63 2.33-3.71h.94z" style="fill-rule:evenodd;fill:#888a85" transform="translate(-264 459.97)"/><path d="M291.69-437.59a3.313 3.313 0 1 1-6.63 0 3.313 3.313 0 1 1 6.63 0z" style="fill:#c4c5c2" transform="matrix(1.2076 0 0 1.2076 -328.227 555.386)"/><path d="M291.69-437.59a3.313 3.313 0 1 1-6.63 0 3.313 3.313 0 1 1 6.63 0z" style="fill:url(#h)" transform="matrix(1.2076 0 0 1.2076 -328.227 555.386)"/><path d="M-46.5.25a9.75 9.75 0 1 1-19.5 0 9.75 9.75 0 1 1 19.5 0z" style="fill:#eaece8" transform="matrix(1.3847 0 0 1.3847 101.872 23.52)"/><path d="M323.85-456.08c.04.18-.13.4-.28.6-.2.27-.31.45-.08.68.14.14.58.01.72-.04.32-.13.67-.23.99-.36.25-.1.43-.14.68-.2.29-.07.57.06.68.2.07.09-.46.49-.52.52-.24.12-.47.22-.72.28-.3.07-.57.18-.88.24-.3.06-.52.15-.79.32-.34.2-.63.5-.92.79-.27.28-.37.57-.28.92.08.34.21.46.52.52.34.07.51-.09.68-.32.21-.29.3-.66.56-.92.21-.21.36-.42.59-.59.24-.18.42-.28.72-.2.25.06.45.3.72.36.23.04.56-.27.76-.36.04-.03.08-.06.12-.08.21-.14.55-.08.8-.08.27 0 .49.12.71.24.27.13.51.12.76.32.28.2.42.35.56.63.13.27.19.43.4.64.22.22.56.36.8.6.14.14.23.53.28.72.07.29.14.6 0 .88-.15.3-.33.58-.48.87s-.55.54-.8.72c-.34.26-.75.28-1.08.6-.37.38-.41.6-.75 1.12-.26.38.04.56.35.48.33-.08.64-.16.96-.24.06-.02.11-.03.16-.04.4-.1.72-.42 1.12-.52.5-.12 1.54.65 1.99.92.36.21-.06.63-.24.72-.31.15-.63.2-.99.2-.24 0-.5-.08-.72-.12-.31-.07-.52-.07-.76.12-.27.2-.24.45-.08.71s.41.45.48.72c.09.35-.19.53-.44.68s-.67-.04-.96-.04c-.36 0-.71.18-.99.4-.13.1-.25.61-.28.76a.75.75 0 0 0-.04.16c-.1.39.02.58.16.91.09.24.32.46.43.68.14.28.23.46.08.76-.12.26-.17.46-.23.72-.05.18.2.66.27.84.15.36.01.43-.23.68-.23.22-.56.27-.8.39-.23.12-.68-.02-.92-.07-.27-.07-.52.05-.72.15-.32.17-.32.32-.56 0-.25-.33-.46-.68-.56-1.07a.75.75 0 0 0-.04-.16c-.06-.27-.04-.6-.04-.88 0-.29.08-.54.08-.84 0-.31-.75.28-.95.36-.1.04-.19.08-.28.12-.4.17-.36.54-.36.88s.2.6.2.96c0 .34-.41.44-.68.44-.39 0-.57-.46-.84-.72-.25-.26-.69-.54-.84-.84-.21-.43-.28-.67.16-1 .26-.19.61-.22.8-.48.2-.26.48-.64 0-.76-.33-.08-.46-.19-.84-.12-.06.02-.13.03-.2.04-.66.14-.65.08-1.27-.23-.45-.23-.6-.57-.92-.88-.3-.3-.46-.69-.56-1.08-.09-.35-.19-.7-.28-1.04-.07-.28-.08-.62-.08-.92 0-.29-.08-.61-.08-.91v-1c0-.34.04-.63.04-.96 0-.28.05-.61.12-.88.01-.02 0-.05 0-.08 0-.34.2-.69.32-.99.11-.27.27-.55.4-.8.13-.26.26-.48.44-.72.19-.26.39-.52.6-.76.34-.42.7-.81 1.11-1.16.24-.2.36-.54.64-.75.35-.27.65-.54 1-.8.26-.2.5-.43.68-.72.14-.24.22-.46.44-.68.05-.05.23-.13.28-.16z" style="opacity:.10556;fill-rule:evenodd;fill:#787974" transform="translate(-305.463 467.787) scale(.9987)"/><path d="M334.86-450.97c-.39.09-1.15.22-1.68.12-.4-.08-.41-.3-.79.08-.03.03-.06.05-.08.08-.25.24-.28.28-.28.64 0 .23 0 .46-.04.68-.05.23-.02.59.04.79.07.32.12.54.28.84.12.24.17.43.39.6.29.22.69.27 1 .4.22.09.59.04.84.04.31 0 .36.03.36.4 0 .31-.59.75-.76 1.04-.19.31-.12.56 0 .91.09.27.15.53.2.8.06.29.13.49.36.72.24.24.69-.03.92.28.11.15.12.41.12.6 0 .32.1.47.4.32.27-.14.47-.13.67-.4.2-.26.3-.59.44-.88.13-.26.35-.28.64-.28.27 0 .48.07.76 0 .41-.1.47-.23.76-.52.37-.36.32-.62.4-1.08.03-.2-.04-.45-.08-.63-.02-.06-.03-.11-.04-.16-.06-.23-.55-.24-.72-.24-.39 0-.96-.19-1.32-.28-.18-.05-.69-.65-.84-.8-.21-.21-.25-.37-.31-.64-.09-.33-.04-.67-.12-1-.1-.37.01-.58-.28-.87-.21-.21-.35-.5-.4-.76-.05-.25-.29-.54-.48-.68-.14-.11-.16-.08-.36-.12z" style="opacity:.18889;fill-rule:evenodd;fill:#787974" transform="translate(-305.463 467.787) scale(.9987)"/><path d="M341-448.66c-.2.01-.41.26-.59.44s-.12.48-.12.72c0 .26.05.54.12.8.05.22.25.49.4.64.22.22.5.35.79.4.39.06.61.11.76-.28.11-.27.16-.46.16-.76 0-.28-.01-.49-.08-.76-.08-.32-.19-.49-.48-.64-.2-.1-.42-.34-.6-.48-.1-.07-.23-.08-.36-.08z" style="opacity:.18333;fill-rule:evenodd;fill:#787974" transform="translate(-305.463 467.787) scale(.9987)"/><path d="M328.36-436.21c.21-.14.84-.79 1.27-1.11.09-.07.16-.14.24-.2.43-.36.81-.93 1.12-1.4.49-.74.71-1.41.88-2.23.21-1.05.26-.35.04.32-.04.1-.06.21-.08.31-.11.44-.16.9-.32 1.32-.23.57-.65 1.05-.8 1.64-.08.31-.19.69-.12.95.08.32.53-.37.84-.47.41-.14.52-.23.52.24 0 .28-.15.67-.2.95-.1.49 1.29.08 1.59 0 1.01-.25 1.7-.59 2.52-1.27.9-.75 1.64-1.57 2.47-2.4.67-.66.98-1.08.56.04-.04.11-.08.21-.12.32s-.08.21-.12.32c-.22.59-.62 1.24-1.16 1.6-.83.55-1.37 1.58-2.27 2.03-.37.18-.75.26-1.12.44-.37.19.72.32.92.36 2 .44-1.62.64-2.08.64-.74 0-1.12-.16-1.71.2-.2.12.94.59 1 .6.46.09.88.4 1.39.4.85 0-1.77.26-2.51.08-.62-.16-1.21-.29-1.84-.44-.31-.08-.63-.03-.91.04-.06.01.04.82.04.91 0 .59-.16 1.06-.44.2-.16-.46-.44-.94-.44-1.43 0-.31-.41.47-.6.72-.26.35-.78.85-.88.87-.01.01.26-.55.36-.95.08-.31.57-1.12.24-1.2-.31-.08-.73-.02-1.04-.08-.46-.09-.96-.18-1.39-.4-.85-.42-2.17-.81-3.08-1.04-.08-.02-1.45-1.49-.16-.2.86.86 2.19 1.44 3.39 1.44.39 0 .96-.15 1.32-.24.22-.05.52-.38.76-.48.26-.1-.42-.38-.6-.6-.07-.08-.13-.16-.2-.24-.71-.86-.96-2.04-1.79-2.87-.14-.13-2.08-2.4-1.16-1.64.95.8 1.83 1.5 2.63 2.44.41.48.77 1.1 1.16 1.59.39.5.31-.1.2-.44-.24-.72-.12-1.72-.12-2.47 0-1 .52 1.03.56 1.2.12.49.38 1.14.76.64.39-.52.44-.62.44.04v.16c0 .24-.02.53.04.79z" style="opacity:.47222;fill-rule:evenodd;fill:#f3f4f2" transform="translate(-305.463 467.787) scale(.9987)"/><path d="M340.05-444.98c.08.08.16.37.16.63 0 .11-.66.62-.76.72-.19.19-.23.52-.28.76-.06.31-.14.53-.08.84.05.26.16.52.28.76.14.28.35.43.6.67.27.28.61.28.95.36.44.11-.25.53-.35.6-.27.2-.53.26-.68.56-.18.35.18.47.4.56.24.1.6-.33.71-.48.16-.2.4-.43.4-.68 0-.24.12-.51.12-.8 0-.27.06-.56.12-.79.09-.36.22-.5.44-.72.18-.18.18-.62.12-.84-.06-.25-.22-.48-.28-.72s-.36-.39-.56-.44c-.23-.06-.56-.48-.71-.64-.21-.2-.3-.35-.6-.35z" style="opacity:.11667;fill-rule:evenodd;fill:#787974" transform="translate(-305.463 467.787) scale(.9987)"/><path d="M322.69-446.02c-.01-.01.03 0 0 0z" style="stroke:#000;stroke-width:1.0013px;fill:none" transform="translate(-305.463 467.787) scale(.9987)"/><path d="M327.6-455.68c.17-.04.57-.17.84-.24.34-.08.69.12 1.03.12.04 0 .26.44.64.44h.16c.24 0 .51.19.68.36.16.16.01.54-.08.64-.25.25-.48.07-.68-.12-.21-.21-.32-.29-.6-.36-.27-.07-.57-.03-.84.04-.32.08-.54.16-.91.16-.13 0-.52-.55-.56-.64-.08-.16.22-.37.32-.4z" style="opacity:.2;fill-rule:evenodd;fill:#938f8b" transform="translate(-305.463 467.787) scale(.9987)"/><path d="M332.43-455c.19.05.64.04.95-.04.35-.09.91-.13 1.28-.04.22.06 1.59.32.96.64-.31.15-.64.19-.92.36-.33.2.4.28.56.28.42 0 .18.51.08.67-.16.27-.05.67 0 .92.06.29.55.24.8.24.34 0 .63.05.83.32.19.24.44.49.32.72-.12.24-.72.28-.91.28-.16 0-.75-.76-.84-.84-.23-.2-.5-.01-.72.04-.39.1-.68-.4-.92-.6-.26-.22-.42-.53-.56-.8-.17-.33.11-.47-.4-.47-.31 0-.48-.07-.71-.24-.32-.24-.56-.15-.56-.6 0-.4.02-.52.36-.72.1-.07.25-.03.4-.12z" style="opacity:.28889;fill-rule:evenodd;fill:#938f8b" transform="translate(-305.463 467.787) scale(.9987)"/><path d="M323.88-456.19c.05.18-.13.39-.28.6-.2.27-.31.45-.08.68.14.14.58.01.72-.04.32-.13.67-.23.99-.36.25-.1.43-.14.68-.2.29-.07.57.06.68.2.07.09-.46.49-.52.52-.24.12-.47.21-.72.28-.3.07-.57.17-.87.24-.31.06-.53.15-.8.31-.34.21-.63.51-.92.8-.27.28-.37.57-.28.92.08.34.21.46.52.52.34.07.51-.1.68-.32.22-.29.3-.66.56-.92.21-.21.36-.42.59-.6.24-.18.43-.27.72-.2.25.07.45.31.72.36.23.05.56-.26.76-.36.04-.02.08-.05.12-.08.21-.13.55-.08.8-.08.27 0 .49.13.72.24.26.14.5.13.75.32.28.21.42.36.56.64.13.27.19.43.4.64.22.22.56.36.8.6.14.14.23.53.28.72.07.29.14.6 0 .87-.15.31-.33.59-.48.88s-.55.53-.8.72c-.34.26-.75.27-1.08.6-.37.37-.41.6-.75 1.12-.26.38.04.55.36.48.32-.09.63-.16.95-.24.06-.02.11-.03.16-.04.4-.1.72-.42 1.12-.52.5-.13 1.54.64 1.99.92.36.21-.06.63-.23.71-.32.16-.64.2-1 .2-.24 0-.49-.07-.72-.12-.31-.06-.52-.06-.76.12-.27.2-.23.46-.08.72.16.26.41.45.48.72.09.35-.19.53-.44.68s-.67-.04-.96-.04c-.36 0-.71.18-.99.4-.13.09-.25.61-.28.76a.75.75 0 0 0-.04.16c-.1.38.02.58.16.91.09.24.32.46.44.68.13.28.22.46.08.76-.13.25-.18.46-.24.72-.05.18.2.66.28.84.14.36.01.42-.24.67-.22.22-.56.28-.8.4-.23.12-.68-.02-.92-.08-.27-.06-.52.06-.72.16-.32.16-.32.32-.56 0-.25-.33-.46-.68-.56-1.07a.75.75 0 0 0-.04-.16c-.06-.27-.04-.6-.04-.88 0-.29.08-.55.08-.84 0-.32-.75.28-.95.36-.1.04-.19.08-.28.12-.4.17-.36.53-.36.88 0 .34.2.6.2.95s-.41.44-.68.44c-.39 0-.57-.45-.84-.71-.25-.26-.69-.54-.84-.84-.21-.43-.28-.67.16-1 .26-.19.61-.23.8-.48.2-.26.48-.64 0-.76-.33-.08-.45-.19-.84-.12-.06.02-.13.03-.2.04-.66.13-.65.07-1.27-.24-.45-.22-.6-.56-.92-.87-.3-.3-.46-.7-.56-1.08-.09-.36-.19-.7-.28-1.04-.07-.28-.08-.63-.08-.92s-.08-.61-.08-.92v-.99c0-.34.04-.64.04-.96 0-.28.06-.62.12-.88.01-.02 0-.05 0-.08 0-.34.2-.69.32-1 .11-.26.27-.54.4-.79.13-.26.26-.48.44-.72.19-.26.4-.52.6-.76.34-.42.71-.81 1.11-1.16.24-.2.36-.54.64-.76.35-.26.65-.53 1-.79.26-.2.5-.43.68-.72.14-.24.22-.47.44-.68.05-.05.23-.14.28-.16z" style="opacity:.17778;fill-rule:evenodd;fill:url(#i)" transform="translate(-305.463 467.787) scale(.9987)"/><path d="M-824.73 649.37a31.865 31.865 0 1 1-63.73 0 31.865 31.865 0 1 1 63.73 0z" style="opacity:.61667;fill:#fff" transform="translate(39.238 10.612) scale(.02126)"/><path d="M-824.73 649.37a31.865 31.865 0 1 1-63.73 0 31.865 31.865 0 1 1 63.73 0z" style="opacity:.54444;fill:#fff" transform="matrix(.01126 0 0 .01126 24.497 11.73)"/><path d="M-824.73 649.37a31.865 31.865 0 1 1-63.73 0 31.865 31.865 0 1 1 63.73 0z" style="opacity:.54444;fill:#c2c3be" transform="translate(49.005 9.853) scale(.02126)"/><path d="M-824.73 649.37a31.865 31.865 0 1 1-63.73 0 31.865 31.865 0 1 1 63.73 0z" style="opacity:.56667;fill:#c2c3be" transform="translate(43.902 20.06) scale(.02126)"/><path d="M-824.73 649.37a31.865 31.865 0 1 1-63.73 0 31.865 31.865 0 1 1 63.73 0z" style="opacity:.61667;fill:#fff" transform="matrix(.01376 0 0 .01376 41.945 14.887)"/><path d="M-824.73 649.37a31.865 31.865 0 1 1-63.73 0 31.865 31.865 0 1 1 63.73 0z" style="opacity:.61667;fill:#fff" transform="matrix(.01126 0 0 .01126 31.588 27.03)"/><path d="M-824.73 649.37a31.865 31.865 0 1 1-63.73 0 31.865 31.865 0 1 1 63.73 0z" style="opacity:.61667;fill:#fff" transform="matrix(.01376 0 0 .01376 40.267 20.779)"/><path d="M-824.73 649.37a31.865 31.865 0 1 1-63.73 0 31.865 31.865 0 1 1 63.73 0z" style="opacity:.61667;fill:#fff" transform="matrix(.01376 0 0 .01376 45.45 9.384)"/><path d="M-824.73 649.37a31.865 31.865 0 1 1-63.73 0 31.865 31.865 0 1 1 63.73 0z" style="opacity:.61667;fill:#fff" transform="matrix(.01376 0 0 .01376 42.424 10.183)"/><path d="M-824.73 649.37a31.865 31.865 0 1 1-63.73 0 31.865 31.865 0 1 1 63.73 0z" style="opacity:.61667;fill:#fff" transform="matrix(.01376 0 0 .01376 43.612 5.719)"/><path d="M-824.73 649.37a31.865 31.865 0 1 1-63.73 0 31.865 31.865 0 1 1 63.73 0z" style="opacity:.61667;fill:#fff" transform="matrix(.01376 0 0 .01376 34.764 18.951)"/><path d="M328.31-435.94c.2-.14.79-.73 1.19-1.03.07-.05.15-.12.22-.18.4-.33.75-.85 1.03-1.28.46-.68.67-1.29.82-2.04.19-.96.24-.32.04.29-.04.1-.05.19-.08.29-.1.4-.14.83-.29 1.21-.21.51-.61.96-.74 1.5-.08.28-.18.63-.12.87.08.29.5-.34.78-.44.39-.12.48-.21.48.22 0 .26-.13.62-.18.88-.09.45 1.19.07 1.48 0 .93-.23 1.57-.55 2.33-1.17.83-.68 1.52-1.43 2.29-2.19.62-.61.91-.99.52.04-.04.09-.08.19-.11.29-.04.09-.08.19-.11.29-.21.54-.58 1.14-1.08 1.46-.77.51-1.27 1.45-2.1 1.86-.34.17-.7.24-1.04.41-.34.16.67.28.85.32 1.86.41-1.5.59-1.92.59-.7 0-1.04-.14-1.59.18-.19.11.87.54.92.55.43.08.82.36 1.3.36.78 0-1.65.25-2.33.08-.58-.14-1.13-.26-1.71-.4-.29-.08-.59-.03-.85.03-.05.01.04.76.04.84 0 .54-.14.97-.41.18-.14-.42-.4-.86-.4-1.31 0-.29-.38.43-.56.66-.24.32-.72.78-.81.8-.01 0 .24-.51.33-.88.07-.27.53-1.02.22-1.09-.28-.07-.67-.02-.96-.07-.43-.09-.89-.17-1.29-.37-.79-.39-2.01-.74-2.85-.95-.08-.02-1.35-1.37-.15-.18.79.78 2.03 1.31 3.14 1.31.36 0 .89-.13 1.23-.22.2-.05.47-.35.7-.43.24-.1-.39-.35-.56-.55-.06-.08-.12-.15-.18-.22-.66-.79-.9-1.87-1.67-2.63-.12-.12-1.92-2.2-1.07-1.5.88.73 1.7 1.37 2.44 2.23.38.44.71 1.01 1.08 1.46.36.45.28-.09.18-.4-.22-.66-.11-1.58-.11-2.27 0-.91.48.94.52 1.1.11.45.35 1.04.7.58.36-.47.41-.56.41.04v.15c0 .22-.02.48.03.73z" style="fill-rule:evenodd;fill:#fff" transform="translate(-305.463 467.787) scale(.9987)"/><g style="opacity:.31667"><path d="M-125.69 68.683a1.768 1.591 0 1 1-3.53 0 1.768 1.591 0 1 1 3.53 0z" style="opacity:1;fill:#a3a4a0" transform="matrix(.9987 0 0 1.0542 155.46 -52.826)"/><path d="M-125.69 68.683a1.768 1.591 0 1 1-3.53 0 1.768 1.591 0 1 1 3.53 0z" style="opacity:1;fill:#a3a4a0" transform="matrix(.9987 0 0 1.0542 157.402 -48.854)"/><path d="M-125.69 68.683a1.768 1.591 0 1 1-3.53 0 1.768 1.591 0 1 1 3.53 0z" style="opacity:1;fill:#a3a4a0" transform="matrix(.64916 0 0 .68522 115.41 -23.57)"/><path d="M-125.69 68.683a1.768 1.591 0 1 1-3.53 0 1.768 1.591 0 1 1 3.53 0z" style="opacity:1;fill:#a3a4a0" transform="matrix(1.548 0 0 1.634 218.585 -94.228)"/><path d="M-125.69 68.683a1.768 1.591 0 1 1-3.53 0 1.768 1.591 0 1 1 3.53 0z" style="opacity:1;fill:#a3a4a0" transform="matrix(1.7977 0 0 1.8975 244.669 -106.182)"/><path d="M-125.69 68.683a1.768 1.591 0 1 1-3.53 0 1.768 1.591 0 1 1 3.53 0z" style="opacity:1;fill:#a3a4a0" transform="matrix(1.3982 0 0 1.4759 197.902 -74.426)"/><path d="M-125.69 68.683a1.768 1.591 0 1 1-3.53 0 1.768 1.591 0 1 1 3.53 0z" style="opacity:1;fill:#a3a4a0" transform="matrix(1.3982 0 0 1.4759 196.313 -80.994)"/></g><path d="M-161.84 69.523a.663.663 0 1 1-1.32 0 .663.663 0 1 1 1.32 0z" style="fill:#fff" transform="translate(184.809 -35.817) scale(.9987)"/><path d="M-46.5.25a9.75 9.75 0 1 1-19.5 0 9.75 9.75 0 1 1 19.5 0z" style="stroke:#888a85;stroke-width:.72219;fill:none" transform="matrix(1.3847 0 0 1.3847 101.891 23.63)"/><path d="M-22.5-17.5a9.5 9.5 0 1 1-19 0 9.5 9.5 0 1 1 19 0z" style="stroke:#fff;stroke-linecap:square;stroke-width:.76089;fill:none" transform="rotate(-53.754 37.315 -64.656) scale(1.31425)"/><path d="M280.5-445.5c-2.27 0-4.11 1.55-4.72 3.62-.69-.36-1.44-.62-2.28-.62-2.76 0-5 2.24-5 5 0 .58.16 1.11.34 1.62-1.37.78-2.34 2.19-2.34 3.88 0 2.48 2.02 4.5 4.5 4.5h19c2.48 0 4.5-2.02 4.5-4.5 0-1.69-.97-3.1-2.34-3.88.18-.51.34-1.04.34-1.62 0-2.76-2.24-5-5-5-.84 0-1.59.26-2.28.62-.61-2.07-2.45-3.62-4.72-3.62z" style="stroke:#888a85;stroke-miterlimit:2;fill:#c4c5c2" transform="translate(-249 467.87)"/><path d="M280.5-445c-2.19 0-3.72 1.34-4.4 3.84-.66-.34-1.54-.83-2.35-.83-2.72 0-4.76 1.94-4.76 4.55 0 .54.27 1.33.45 1.82-1.33.73-2.44 1.89-2.44 3.37 0 2.35 1.55 4.25 4.34 4.25h18.32c2.77 0 4.34-1.9 4.34-4.25 0-1.59-1.11-2.67-2.44-3.39.18-.49.47-1.26.47-1.8 0-2.61-2.12-4.57-4.78-4.57-.81 0-1.64.49-2.31.83-.65-2.42-2.25-3.82-4.44-3.82z" style="fill:url(#b)" transform="translate(-249 467.87)"/><path d="M291.69-437.59a3.313 3.313 0 1 1-6.63 0 3.313 3.313 0 1 1 6.63 0z" style="fill:#c4c5c2" transform="translate(-273.198 489.733) scale(1.0566)"/><path d="M291.69-437.59a3.313 3.313 0 1 1-6.63 0 3.313 3.313 0 1 1 6.63 0z" style="fill:url(#c)" transform="translate(-273.198 489.733) scale(1.0566)"/><path d="M271-438h20v9h-20z" style="fill:#c4c5c2" transform="translate(-249 467.87)"/><path d="M291.69-437.59a3.313 3.313 0 1 1-6.63 0 3.313 3.313 0 1 1 6.63 0z" style="fill:#c4c5c2" transform="translate(-239.17 432.181) scale(.90566)"/><path d="M291.69-437.59a3.313 3.313 0 1 1-6.63 0 3.313 3.313 0 1 1 6.63 0z" style="fill:#c4c5c2" transform="translate(-266.198 492.733) scale(1.0566)"/><path d="M291.69-437.59a3.313 3.313 0 1 1-6.63 0 3.313 3.313 0 1 1 6.63 0z" style="fill:url(#d)" transform="translate(-266.198 492.733) scale(1.0566)"/><path d="M291.69-437.59a3.313 3.313 0 1 1-6.63 0 3.313 3.313 0 1 1 6.63 0z" style="fill:#c4c5c2" transform="translate(-280.198 492.733) scale(1.0566)"/><path d="M291.69-437.59a3.313 3.313 0 1 1-6.63 0 3.313 3.313 0 1 1 6.63 0z" style="fill:url(#e)" transform="translate(-280.198 492.733) scale(1.0566)"/><path d="M280.47-440.97c-3.58 0-6.47 2.92-6.47 6.5 0 2.37 1.35 4.34 3.25 5.47h6.47c1.9-1.13 3.25-3.13 3.25-5.5 0-3.58-2.92-6.47-6.5-6.47z" style="fill:#c4c5c2" transform="translate(-250 467.87)"/><path d="M280.5-441a6.5 6.5 0 0 0-6.5 6.5c0 2.38 1.34 4.37 3.25 5.5h6.5c1.91-1.13 3.25-3.12 3.25-5.5a6.5 6.5 0 0 0-6.5-6.5z" style="fill:url(#f)" transform="translate(-250 467.87)"/><path d="M291.69-437.59a3.313 3.313 0 1 1-6.63 0 3.313 3.313 0 1 1 6.63 0z" style="fill:url(#g)" transform="translate(-239.17 432.181) scale(.90566)"/><path d="M292.96-437.33c-.01 2.68-3.27 3.71-3.27 3.71s2.35-1.63 2.33-3.71h.94z" style="fill-rule:evenodd;fill:#888a85" transform="translate(-249 467.87)"/><path d="M291.69-437.59a3.313 3.313 0 1 1-6.63 0 3.313 3.313 0 1 1 6.63 0z" style="fill:#c4c5c2" transform="matrix(1.2076 0 0 1.2076 -313.227 563.286)"/><path d="M291.69-437.59a3.313 3.313 0 1 1-6.63 0 3.313 3.313 0 1 1 6.63 0z" style="fill:url(#h)" transform="matrix(1.2076 0 0 1.2076 -313.227 563.286)"/></svg>