<svg xmlns="http://www.w3.org/2000/svg" xmlns:xlink="http://www.w3.org/1999/xlink" viewBox="0 0 48 48"><defs><linearGradient xlink:href="#a" id="c" x1="6.894" x2="27.4" y1="-359.82" y2="-381.3" gradientTransform="matrix(-.05359 .10285 -.09281 -.05938 198.91 -255.69)" gradientUnits="userSpaceOnUse"/><linearGradient xlink:href="#a" id="o" x1="284.8" x2="288.9" y1="-441.23" y2="-436.83" gradientUnits="userSpaceOnUse"/><linearGradient xlink:href="#a" id="n" x1="286.67" x2="289.77" y1="-439.48" y2="-436.71" gradientUnits="userSpaceOnUse"/><linearGradient xlink:href="#a" id="m" x1="275.94" x2="279.98" y1="-437.11" y2="-431.92" gradientTransform="translate(-35 207)" gradientUnits="userSpaceOnUse"/><linearGradient xlink:href="#a" id="l" x1="285.94" x2="289.39" y1="-439.94" y2="-436.44" gradientUnits="userSpaceOnUse"/><linearGradient xlink:href="#a" id="k" x1="286.51" x2="289.85" y1="-441.29" y2="-436.14" gradientUnits="userSpaceOnUse"/><linearGradient xlink:href="#a" id="j" x1="287.52" x2="289.68" y1="-439.75" y2="-436.32" gradientUnits="userSpaceOnUse"/><linearGradient xlink:href="#a" id="i" x1="271.02" x2="285.03" y1="-441.05" y2="-431.97" gradientTransform="translate(-34 207)" gradientUnits="userSpaceOnUse"/><linearGradient id="h" x1="238" x2="245.65" y1="-388.47" y2="-382.65" gradientUnits="userSpaceOnUse"><stop offset="0" style="stop-color:#fff"/><stop offset="1" style="stop-color:#fff;stop-opacity:0"/></linearGradient><linearGradient id="g" x1="230.88" x2="235.26" y1="-390.44" y2="-386.96" gradientUnits="userSpaceOnUse"><stop offset="0" style="stop-color:#fff"/><stop offset="1" style="stop-color:#fff;stop-opacity:0"/></linearGradient><linearGradient id="f" x1="246.74" x2="252.7" y1="-391.31" y2="-385.35" gradientUnits="userSpaceOnUse"><stop offset="0" style="stop-color:#fff"/><stop offset="1" style="stop-color:#fff;stop-opacity:0"/></linearGradient><linearGradient id="e" x1="240.07" x2="245.83" y1="-393.41" y2="-388.55" gradientUnits="userSpaceOnUse"><stop offset="0" style="stop-color:#fff"/><stop offset="1" style="stop-color:#fff;stop-opacity:0"/></linearGradient><linearGradient id="d" x1="228.5" x2="266.36" y1="-392.31" y2="-379.27" gradientTransform="translate(69 155)" gradientUnits="userSpaceOnUse"><stop offset="0" style="stop-color:#fff"/><stop offset="1" style="stop-color:#fff;stop-opacity:0"/></linearGradient><linearGradient id="a"><stop offset="0" style="stop-color:#fff"/><stop offset="1" style="stop-color:#fff;stop-opacity:0"/></linearGradient><radialGradient xlink:href="#a" id="b" cx="21.92" cy="-382.96" r="21.744" gradientTransform="matrix(.07065 .04155 -.06202 .10941 207.48 -189.82)" gradientUnits="userSpaceOnUse"/></defs><path d="M231.63-228.77c-1.04-.6-1.4-1.92-.8-2.95 1.33-2.08 3.11-1.55 4.01-3.74 1.26 1.33.8 8.25-3.21 6.69z" style="stroke:#204a87;stroke-miterlimit:2;stroke-width:1.0746;fill:#729fcf" transform="translate(-202.95 271.01)"/><path d="M234.31-229.9c-.49.86-1.57 1.16-2.42.66s-1.14-1.61-.65-2.47 2.6-.45 3.34-2.29c.85.5.22 3.23-.27 4.1z" style="opacity:.46111;fill:url(#b)" transform="translate(-202.95 271.01)"/><path d="M233.02-229c-4.61-1.07.24-4.72.98-3.92-3.58 1.37-.98 3.92-.98 3.92z" style="fill:url(#c)" transform="translate(-202.95 271.01)"/><path d="M311.5-243c-2.77 0-5.11 1.57-6.41 3.81-.94-.47-1.96-.81-3.09-.81-3.86 0-7 3.14-7 7s3.14 7 7 7c2.42 0 4.43-1.32 5.69-3.19 1.13.69 2.39 1.19 3.81 1.19.91 0 1.75-.23 2.56-.53.51.87 1.18 1.58 2 2.16 0 .13-.06.24-.06.37 0 3.86 3.14 7 7 7s7-3.14 7-7c0-2.37-1.26-4.36-3.06-5.62 0-.14.06-.25.06-.38 0-3.86-3.14-7-7-7-.62 0-1.18.22-1.75.38-1.19-2.56-3.74-4.38-6.75-4.38z" style="fill:#555753" transform="matrix(.99968 0 0 1 -286.85 245)"/><path d="M311.5-242c-2.78 0-5.13 1.76-6.06 4.22-.99-.71-2.13-1.22-3.44-1.22-3.31 0-6 2.69-6 6s2.69 6 6 6c2.43 0 4.49-1.46 5.44-3.53 1.12.92 2.5 1.53 4.06 1.53 1.07 0 2.04-.32 2.94-.78.4 1 1.1 1.79 1.94 2.44-.19.59-.38 1.19-.38 1.84a6.5 6.5 0 1 0 13 0c0-2.36-1.33-4.33-3.22-5.47.06-.35.22-.66.22-1.03 0-3.31-2.69-6-6-6-.85 0-1.67.18-2.41.5-.85-2.59-3.21-4.5-6.09-4.5z" style="fill:url(#d)" transform="matrix(.99968 0 0 1 -286.85 245)"/><path d="M248.55-383.67a6.74 6.74 0 1 1-13.48 0 6.74 6.74 0 1 1 13.48 0z" style="fill:#888a85" transform="matrix(.96414 0 0 .96445 -197.59 389.53)"/><path d="M250.18-389.3a6.231 6.231 0 1 1-12.46 0 6.231 6.231 0 1 1 12.46 0z" style="fill:#888a85" transform="matrix(.88235 0 0 .88263 -190.7 353.11)"/><path d="M250.18-389.3a6.231 6.231 0 1 1-12.46 0 6.231 6.231 0 1 1 12.46 0z" style="opacity:.49444;fill:url(#e)" transform="matrix(.88235 0 0 .88263 -190.7 353.11)"/><path d="M257.25-385.79a6.032 6.032 0 1 1-12.06 0 6.032 6.032 0 1 1 12.06 0z" style="fill:#888a85" transform="matrix(.91144 0 0 .91173 -196.425 365.23)"/><path d="M257.25-385.79a6.032 6.032 0 1 1-12.06 0 6.032 6.032 0 1 1 12.06 0z" style="opacity:.49444;fill:url(#f)" transform="matrix(.91144 0 0 .91173 -196.425 365.23)"/><path d="M237.81-387.89a4.375 4.375 0 1 1-8.75 0 4.375 4.375 0 1 1 8.75 0z" style="fill:#888a85" transform="matrix(1.14243 0 0 1.1428 -251.63 455.28)"/><path d="M237.81-387.89a4.375 4.375 0 1 1-8.75 0 4.375 4.375 0 1 1 8.75 0z" style="opacity:.49444;fill:url(#g)" transform="matrix(1.14243 0 0 1.1428 -251.63 455.28)"/><path d="M248.55-383.67a6.74 6.74 0 1 1-13.48 0 6.74 6.74 0 1 1 13.48 0z" style="fill:#888a85" transform="matrix(1.03827 0 0 1.0386 -227.02 414.49)"/><path d="M248.55-383.67a6.74 6.74 0 1 1-13.48 0 6.74 6.74 0 1 1 13.48 0z" style="opacity:.49444;fill:url(#h)" transform="matrix(1.03827 0 0 1.0386 -227.02 414.49)"/><path d="M246.5-238.5c-2.27 0-4.11 1.55-4.72 3.63-.69-.37-1.44-.63-2.28-.63-2.76 0-5 2.24-5 5 0 .58.16 1.11.34 1.63-1.37.77-2.34 2.18-2.34 3.87 0 2.48 2.02 4.5 4.5 4.5h19c2.48 0 4.5-2.02 4.5-4.5 0-1.69-.97-3.1-2.34-3.87.18-.52.34-1.05.34-1.63 0-2.76-2.24-5-5-5-.84 0-1.59.26-2.28.63-.61-2.08-2.45-3.63-4.72-3.63z" style="stroke:#555753;stroke-miterlimit:2;stroke-width:1.0002;fill:#888a85" transform="matrix(.99968 0 0 1 -214.873 253)"/><path d="M246.5-238c-2.19 0-3.72 1.34-4.4 3.84-.66-.34-1.54-.83-2.35-.83-2.72 0-4.76 1.94-4.76 4.55 0 .54.27 1.33.45 1.82-1.33.73-2.44 1.89-2.44 3.37 0 2.35 1.55 4.25 4.34 4.25h18.32c2.77 0 4.34-1.9 4.34-4.25 0-1.59-1.11-2.67-2.44-3.39.18-.49.47-1.26.47-1.8 0-2.61-2.12-4.57-4.78-4.57-.81 0-1.64.49-2.31.83-.65-2.42-2.25-3.82-4.44-3.82z" style="fill:url(#i)" transform="matrix(.99968 0 0 1 -214.873 253)"/><path d="M291.69-437.59a3.313 3.313 0 1 1-6.63 0 3.313 3.313 0 1 1 6.63 0z" style="fill:#888a85" transform="matrix(1.05626 0 0 1.0566 -273.052 481.86)"/><path d="M291.69-437.59a3.313 3.313 0 1 1-6.63 0 3.313 3.313 0 1 1 6.63 0z" style="opacity:.47778;fill:url(#j)" transform="matrix(1.05626 0 0 1.0566 -273.052 481.86)"/><path d="M237-231h20v9h-20z" style="fill:#888a85" transform="matrix(.99968 0 0 1 -214.873 253)"/><path d="M291.69-437.59a3.313 3.313 0 1 1-6.63 0 3.313 3.313 0 1 1 6.63 0z" style="fill:#888a85" transform="matrix(.90537 0 0 .90566 -239.035 424.31)"/><path d="M291.69-437.59a3.313 3.313 0 1 1-6.63 0 3.313 3.313 0 1 1 6.63 0z" style="fill:#888a85" transform="matrix(1.05626 0 0 1.0566 -266.055 484.86)"/><path d="M291.69-437.59a3.313 3.313 0 1 1-6.63 0 3.313 3.313 0 1 1 6.63 0z" style="opacity:.47778;fill:url(#k)" transform="matrix(1.05626 0 0 1.0566 -266.055 484.86)"/><path d="M291.69-437.59a3.313 3.313 0 1 1-6.63 0 3.313 3.313 0 1 1 6.63 0z" style="fill:#888a85" transform="matrix(1.05626 0 0 1.0566 -280.05 484.86)"/><path d="M291.69-437.59a3.313 3.313 0 1 1-6.63 0 3.313 3.313 0 1 1 6.63 0z" style="opacity:.47778;fill:url(#l)" transform="matrix(1.05626 0 0 1.0566 -280.05 484.86)"/><path d="M245.47-233.97c-3.58 0-6.47 2.92-6.47 6.5 0 2.37 1.35 4.34 3.25 5.47h6.47c1.9-1.13 3.25-3.13 3.25-5.5 0-3.58-2.92-6.47-6.5-6.47z" style="fill:#888a85" transform="matrix(.99968 0 0 1 -214.873 253)"/><path d="M245.5-234a6.5 6.5 0 0 0-6.5 6.5c0 2.38 1.34 4.37 3.25 5.5h6.5c1.91-1.13 3.25-3.12 3.25-5.5a6.5 6.5 0 0 0-6.5-6.5z" style="opacity:.47778;fill:url(#m)" transform="matrix(.99968 0 0 1 -214.873 253)"/><path d="M291.69-437.59a3.313 3.313 0 1 1-6.63 0 3.313 3.313 0 1 1 6.63 0z" style="opacity:.47778;fill:url(#n)" transform="matrix(.90537 0 0 .90566 -239.035 424.31)"/><path d="M258.96-230.33c-.01 2.68-3.27 3.71-3.27 3.71s2.35-1.63 2.33-3.7l.94-.01z" style="fill-rule:evenodd;fill:#555753" transform="matrix(.99968 0 0 1 -214.873 253)"/><path d="M291.69-437.59a3.313 3.313 0 1 1-6.63 0 3.313 3.313 0 1 1 6.63 0z" style="fill:#888a85" transform="matrix(1.20711 0 0 1.2075 -313.069 555.42)"/><path d="M291.69-437.59a3.313 3.313 0 1 1-6.63 0 3.313 3.313 0 1 1 6.63 0z" style="opacity:.47778;fill:url(#o)" transform="matrix(1.20711 0 0 1.2075 -313.069 555.42)"/><path d="M246.5-238.5c-2.27 0-4.11 1.55-4.72 3.63-.69-.37-1.44-.63-2.28-.63-2.76 0-5 2.24-5 5 0 .58.16 1.11.34 1.63-1.37.77-2.34 2.18-2.34 3.87 0 2.48 2.02 4.5 4.5 4.5h19c2.48 0 4.5-2.02 4.5-4.5 0-1.69-.97-3.1-2.34-3.87.18-.52.34-1.05.34-1.63 0-2.76-2.24-5-5-5-.84 0-1.59.26-2.28.63-.61-2.08-2.45-3.63-4.72-3.63z" style="stroke:#555753;stroke-miterlimit:2;stroke-width:1.0002;fill:#888a85" transform="matrix(.99968 0 0 1 -229.882 248.984)"/><path d="M246.5-238c-2.19 0-3.72 1.34-4.4 3.84-.66-.34-1.54-.83-2.35-.83-2.72 0-4.76 1.94-4.76 4.55 0 .54.27 1.33.45 1.82-1.33.73-2.44 1.89-2.44 3.37 0 2.35 1.55 4.25 4.34 4.25h18.32c2.77 0 4.34-1.9 4.34-4.25 0-1.59-1.11-2.67-2.44-3.39.18-.49.47-1.26.47-1.8 0-2.61-2.12-4.57-4.78-4.57-.81 0-1.64.49-2.31.83-.65-2.42-2.25-3.82-4.44-3.82z" style="fill:url(#i)" transform="matrix(.99968 0 0 1 -229.882 248.984)"/><path d="M291.69-437.59a3.313 3.313 0 1 1-6.63 0 3.313 3.313 0 1 1 6.63 0z" style="fill:#888a85" transform="matrix(1.05626 0 0 1.0566 -288.062 477.844)"/><path d="M291.69-437.59a3.313 3.313 0 1 1-6.63 0 3.313 3.313 0 1 1 6.63 0z" style="opacity:.47778;fill:url(#j)" transform="matrix(1.05626 0 0 1.0566 -288.062 477.844)"/><path d="M237-231h20v9h-20z" style="fill:#888a85" transform="matrix(.99968 0 0 1 -229.882 248.984)"/><path d="M291.69-437.59a3.313 3.313 0 1 1-6.63 0 3.313 3.313 0 1 1 6.63 0z" style="fill:#888a85" transform="matrix(.90537 0 0 .90566 -254.045 420.294)"/><path d="M291.69-437.59a3.313 3.313 0 1 1-6.63 0 3.313 3.313 0 1 1 6.63 0z" style="fill:#888a85" transform="matrix(1.05626 0 0 1.0566 -281.064 480.844)"/><path d="M291.69-437.59a3.313 3.313 0 1 1-6.63 0 3.313 3.313 0 1 1 6.63 0z" style="opacity:.47778;fill:url(#k)" transform="matrix(1.05626 0 0 1.0566 -281.064 480.844)"/><path d="M291.69-437.59a3.313 3.313 0 1 1-6.63 0 3.313 3.313 0 1 1 6.63 0z" style="fill:#888a85" transform="matrix(1.05626 0 0 1.0566 -295.06 480.844)"/><path d="M291.69-437.59a3.313 3.313 0 1 1-6.63 0 3.313 3.313 0 1 1 6.63 0z" style="opacity:.47778;fill:url(#l)" transform="matrix(1.05626 0 0 1.0566 -295.06 480.844)"/><path d="M245.47-233.97c-3.58 0-6.47 2.92-6.47 6.5 0 2.37 1.35 4.34 3.25 5.47h6.47c1.9-1.13 3.25-3.13 3.25-5.5 0-3.58-2.92-6.47-6.5-6.47z" style="fill:#888a85" transform="matrix(.99968 0 0 1 -229.882 248.984)"/><path d="M245.5-234a6.5 6.5 0 0 0-6.5 6.5c0 2.38 1.34 4.37 3.25 5.5h6.5c1.91-1.13 3.25-3.12 3.25-5.5a6.5 6.5 0 0 0-6.5-6.5z" style="opacity:.47778;fill:url(#m)" transform="matrix(.99968 0 0 1 -229.882 248.984)"/><path d="M291.69-437.59a3.313 3.313 0 1 1-6.63 0 3.313 3.313 0 1 1 6.63 0z" style="opacity:.47778;fill:url(#n)" transform="matrix(.90537 0 0 .90566 -254.045 420.294)"/><path d="M258.96-230.33c-.01 2.68-3.27 3.71-3.27 3.71s2.35-1.63 2.33-3.7l.94-.01z" style="fill-rule:evenodd;fill:#555753" transform="matrix(.99968 0 0 1 -229.882 248.984)"/><path d="M291.69-437.59a3.313 3.313 0 1 1-6.63 0 3.313 3.313 0 1 1 6.63 0z" style="fill:#888a85" transform="matrix(1.20711 0 0 1.2075 -328.078 551.404)"/><path d="M291.69-437.59a3.313 3.313 0 1 1-6.63 0 3.313 3.313 0 1 1 6.63 0z" style="opacity:.47778;fill:url(#o)" transform="matrix(1.20711 0 0 1.2075 -328.078 551.404)"/><path d="M231.63-228.77c-1.04-.6-1.4-1.92-.8-2.95 1.33-2.08 3.11-1.55 4.01-3.74 1.26 1.33.8 8.25-3.21 6.69z" style="stroke:#204a87;stroke-miterlimit:2;stroke-width:1.0746;fill:#729fcf" transform="translate(-222.95 261.01)"/><path d="M234.31-229.9c-.49.86-1.57 1.16-2.42.66s-1.14-1.61-.65-2.47 2.6-.45 3.34-2.29c.85.5.22 3.23-.27 4.1z" style="opacity:.46111;fill:url(#b)" transform="translate(-222.95 261.01)"/><path d="M233.02-229c-4.61-1.07.24-4.72.98-3.92-3.58 1.37-.98 3.92-.98 3.92z" style="fill:url(#c)" transform="translate(-222.95 261.01)"/><path d="M231.63-228.77c-1.04-.6-1.4-1.92-.8-2.95 1.33-2.08 3.11-1.55 4.01-3.74 1.26 1.33.8 8.25-3.21 6.69z" style="stroke:#204a87;stroke-miterlimit:2;stroke-width:1.0746;fill:#729fcf" transform="translate(-193.96 268.01)"/><path d="M234.31-229.9c-.49.86-1.57 1.16-2.42.66s-1.14-1.61-.65-2.47 2.6-.45 3.34-2.29c.85.5.22 3.23-.27 4.1z" style="opacity:.46111;fill:url(#b)" transform="translate(-193.96 268.01)"/><path d="M233.02-229c-4.61-1.07.24-4.72.98-3.92-3.58 1.37-.98 3.92-.98 3.92z" style="fill:url(#c)" transform="translate(-193.96 268.01)"/><path d="M231.63-228.77c-1.04-.6-1.4-1.92-.8-2.95 1.33-2.08 3.11-1.55 4.01-3.74 1.26 1.33.8 8.25-3.21 6.69z" style="stroke:#204a87;stroke-miterlimit:2;stroke-width:1.0746;fill:#729fcf" transform="translate(-224.96 271.01)"/><path d="M234.31-229.9c-.49.86-1.57 1.16-2.42.66s-1.14-1.61-.65-2.47 2.6-.45 3.34-2.29c.85.5.22 3.23-.27 4.1z" style="opacity:.46111;fill:url(#b)" transform="translate(-224.96 271.01)"/><path d="M233.02-229c-4.61-1.07.24-4.72.98-3.92-3.58 1.37-.98 3.92-.98 3.92z" style="fill:url(#c)" transform="translate(-224.96 271.01)"/><path d="M231.63-228.77c-1.04-.6-1.4-1.92-.8-2.95 1.33-2.08 3.11-1.55 4.01-3.74 1.26 1.33.8 8.25-3.21 6.69z" style="stroke:#204a87;stroke-miterlimit:2;stroke-width:1.0746;fill:#729fcf" transform="translate(-214.96 266.01)"/><path d="M234.31-229.9c-.49.86-1.57 1.16-2.42.66s-1.14-1.61-.65-2.47 2.6-.45 3.34-2.29c.85.5.22 3.23-.27 4.1z" style="opacity:.46111;fill:url(#b)" transform="translate(-214.96 266.01)"/><path d="M233.02-229c-4.61-1.07.24-4.72.98-3.92-3.58 1.37-.98 3.92-.98 3.92z" style="fill:url(#c)" transform="translate(-214.96 266.01)"/><path d="M231.63-228.77c-1.04-.6-1.4-1.92-.8-2.95 1.33-2.08 3.11-1.55 4.01-3.74 1.26 1.33.8 8.25-3.21 6.69z" style="stroke:#204a87;stroke-miterlimit:2;stroke-width:1.0746;fill:#729fcf" transform="translate(-200.96 261.01)"/><path d="M234.31-229.9c-.49.86-1.57 1.16-2.42.66s-1.14-1.61-.65-2.47 2.6-.45 3.34-2.29c.85.5.22 3.23-.27 4.1z" style="opacity:.46111;fill:url(#b)" transform="translate(-200.96 261.01)"/><path d="M233.02-229c-4.61-1.07.24-4.72.98-3.92-3.58 1.37-.98 3.92-.98 3.92z" style="fill:url(#c)" transform="translate(-200.96 261.01)"/></svg>