<svg xmlns="http://www.w3.org/2000/svg" xmlns:xlink="http://www.w3.org/1999/xlink" viewBox="0 0 48 48"><defs><linearGradient xlink:href="#a" id="n" x1="284.8" x2="288.9" y1="-441.23" y2="-436.83" gradientUnits="userSpaceOnUse"/><linearGradient xlink:href="#a" id="m" x1="286.67" x2="289.77" y1="-439.48" y2="-436.71" gradientUnits="userSpaceOnUse"/><linearGradient xlink:href="#a" id="l" x1="275.94" x2="279.98" y1="-437.11" y2="-431.92" gradientUnits="userSpaceOnUse"/><linearGradient xlink:href="#a" id="k" x1="285.94" x2="289.39" y1="-439.94" y2="-436.44" gradientUnits="userSpaceOnUse"/><linearGradient xlink:href="#a" id="j" x1="286.51" x2="289.85" y1="-441.29" y2="-436.14" gradientUnits="userSpaceOnUse"/><linearGradient xlink:href="#a" id="i" x1="287.52" x2="289.68" y1="-439.75" y2="-436.32" gradientUnits="userSpaceOnUse"/><linearGradient xlink:href="#a" id="h" x1="271.02" x2="285.03" y1="-441.05" y2="-431.97" gradientUnits="userSpaceOnUse"/><linearGradient id="a"><stop offset="0" style="stop-color:#fff"/><stop offset="1" style="stop-color:#fff;stop-opacity:0"/></linearGradient><linearGradient id="g" x1="-156.29" x2="-153.1" y1="-100.53" y2="-96.545" gradientUnits="userSpaceOnUse"><stop offset="0" style="stop-color:#fff"/><stop offset="1" style="stop-color:#fff;stop-opacity:0"/></linearGradient><linearGradient id="f" x1="238" x2="245.65" y1="-388.47" y2="-382.65" gradientUnits="userSpaceOnUse"><stop offset="0" style="stop-color:#fff"/><stop offset="1" style="stop-color:#fff;stop-opacity:0"/></linearGradient><linearGradient id="e" x1="230.88" x2="235.26" y1="-390.44" y2="-386.96" gradientUnits="userSpaceOnUse"><stop offset="0" style="stop-color:#fff"/><stop offset="1" style="stop-color:#fff;stop-opacity:0"/></linearGradient><linearGradient id="d" x1="246.74" x2="252.7" y1="-391.31" y2="-385.35" gradientUnits="userSpaceOnUse"><stop offset="0" style="stop-color:#fff"/><stop offset="1" style="stop-color:#fff;stop-opacity:0"/></linearGradient><linearGradient id="c" x1="240.07" x2="245.83" y1="-393.41" y2="-388.55" gradientUnits="userSpaceOnUse"><stop offset="0" style="stop-color:#fff"/><stop offset="1" style="stop-color:#fff;stop-opacity:0"/></linearGradient><linearGradient id="b" x1="228.5" x2="278.92" y1="-392.31" y2="-375.38" gradientTransform="translate(122.02 102)" gradientUnits="userSpaceOnUse"><stop offset="0" style="stop-color:#fff"/><stop offset="1" style="stop-color:#fff;stop-opacity:0"/></linearGradient></defs><path d="M364.52-296c-2.77 0-5.11 1.57-6.4 3.81-.95-.47-1.97-.81-3.1-.81-3.86 0-7 3.14-7 7s3.14 7 7 7c2.42 0 4.43-1.32 5.69-3.19 1.13.69 2.39 1.19 3.81 1.19.92 0 1.76-.23 2.57-.53.51.87 1.17 1.58 2 2.15-.01.14-.07.25-.07.38 0 3.86 3.14 7 7 7 3.87 0 7-3.14 7-7 0-2.37-1.26-4.36-3.06-5.62.01-.14.06-.25.06-.38 0-3.86-3.13-7-7-7-.62 0-1.17.22-1.75.38-1.19-2.56-3.74-4.38-6.75-4.38z" style="fill:#888a85" transform="translate(-340.05 298)"/><path d="M364.52-295c-2.78 0-5.13 1.76-6.06 4.22-.98-.71-2.13-1.22-3.44-1.22-3.31 0-6 2.69-6 6s2.69 6 6 6c2.43 0 4.5-1.46 5.44-3.53 1.12.92 2.5 1.53 4.06 1.53 1.08 0 2.05-.32 2.94-.78.4 1 1.1 1.79 1.94 2.44-.18.59-.38 1.19-.38 1.84a6.5 6.5 0 1 0 13 0c0-2.36-1.33-4.33-3.22-5.47.07-.35.22-.66.22-1.03a5.998 5.998 0 0 0-8.4-5.5c-.86-2.59-3.22-4.5-6.1-4.5z" style="fill:url(#b)" transform="translate(-340.05 298)"/><path d="M248.55-383.67a6.74 6.74 0 1 1-13.48 0 6.74 6.74 0 1 1 13.48 0z" style="fill:#c4c5c2" transform="translate(-197.74 389.526) scale(.96445)"/><path d="M250.18-389.3a6.231 6.231 0 1 1-12.46 0 6.231 6.231 0 1 1 12.46 0z" style="fill:#c4c5c2" transform="translate(-190.849 353.109) scale(.88263)"/><path d="M250.18-389.3a6.231 6.231 0 1 1-12.46 0 6.231 6.231 0 1 1 12.46 0z" style="fill:url(#c)" transform="translate(-190.849 353.109) scale(.88263)"/><path d="M257.25-385.79a6.032 6.032 0 1 1-12.06 0 6.032 6.032 0 1 1 12.06 0z" style="fill:#c4c5c2" transform="translate(-196.576 365.234) scale(.91173)"/><path d="M257.25-385.79a6.032 6.032 0 1 1-12.06 0 6.032 6.032 0 1 1 12.06 0z" style="fill:url(#d)" transform="translate(-196.576 365.234) scale(.91173)"/><path d="M237.81-387.89a4.375 4.375 0 1 1-8.75 0 4.375 4.375 0 1 1 8.75 0z" style="fill:#c4c5c2" transform="translate(-251.798 455.277) scale(1.1428)"/><path d="M237.81-387.89a4.375 4.375 0 1 1-8.75 0 4.375 4.375 0 1 1 8.75 0z" style="fill:url(#e)" transform="translate(-251.798 455.277) scale(1.1428)"/><path d="M248.55-383.67a6.74 6.74 0 1 1-13.48 0 6.74 6.74 0 1 1 13.48 0z" style="fill:#c4c5c2" transform="translate(-227.18 414.49) scale(1.0386)"/><path d="M248.55-383.67a6.74 6.74 0 1 1-13.48 0 6.74 6.74 0 1 1 13.48 0z" style="fill:url(#f)" transform="translate(-227.18 414.49) scale(1.0386)"/><path d="M-151.94-96.938a3.125 3.125 0 1 1-6.25 0 3.125 3.125 0 1 1 6.25 0z" style="fill:#c4c5c2" transform="translate(263.43 175.903) scale(1.6248)"/><path d="M-151.94-96.938a3.125 3.125 0 1 1-6.25 0 3.125 3.125 0 1 1 6.25 0z" style="fill:url(#g)" transform="translate(263.485 175.845) scale(1.6248)"/><path d="M280.5-445.5c-2.27 0-4.11 1.55-4.72 3.62-.69-.36-1.44-.62-2.28-.62-2.76 0-5 2.24-5 5 0 .58.16 1.11.34 1.62-1.37.78-2.34 2.19-2.34 3.88 0 2.48 2.02 4.5 4.5 4.5h19c2.48 0 4.5-2.02 4.5-4.5 0-1.69-.97-3.1-2.34-3.88.18-.51.34-1.04.34-1.62 0-2.76-2.24-5-5-5-.84 0-1.59.26-2.28.62-.61-2.07-2.45-3.62-4.72-3.62z" style="stroke:#888a85;stroke-miterlimit:2;fill:#c4c5c2" transform="translate(-249.027 460)"/><path d="M280.5-445c-2.19 0-3.72 1.34-4.4 3.84-.66-.34-1.54-.83-2.35-.83-2.72 0-4.76 1.94-4.76 4.55 0 .54.27 1.33.45 1.82-1.33.73-2.44 1.89-2.44 3.37 0 2.35 1.55 4.25 4.34 4.25h18.32c2.77 0 4.34-1.9 4.34-4.25 0-1.59-1.11-2.67-2.44-3.39.18-.49.47-1.26.47-1.8 0-2.61-2.12-4.57-4.78-4.57-.81 0-1.64.49-2.31.83-.65-2.42-2.25-3.82-4.44-3.82z" style="fill:url(#h)" transform="translate(-249.027 460)"/><path d="M291.69-437.59a3.313 3.313 0 1 1-6.63 0 3.313 3.313 0 1 1 6.63 0z" style="fill:#c4c5c2" transform="translate(-273.225 481.863) scale(1.0566)"/><path d="M291.69-437.59a3.313 3.313 0 1 1-6.63 0 3.313 3.313 0 1 1 6.63 0z" style="fill:url(#i)" transform="translate(-273.225 481.863) scale(1.0566)"/><path d="M271-438h20v9h-20z" style="fill:#c4c5c2" transform="translate(-249.027 460)"/><path d="M291.69-437.59a3.313 3.313 0 1 1-6.63 0 3.313 3.313 0 1 1 6.63 0z" style="fill:#c4c5c2" transform="translate(-239.197 424.311) scale(.90566)"/><path d="M291.69-437.59a3.313 3.313 0 1 1-6.63 0 3.313 3.313 0 1 1 6.63 0z" style="fill:#c4c5c2" transform="translate(-266.225 484.863) scale(1.0566)"/><path d="M291.69-437.59a3.313 3.313 0 1 1-6.63 0 3.313 3.313 0 1 1 6.63 0z" style="fill:url(#j)" transform="translate(-266.225 484.863) scale(1.0566)"/><path d="M291.69-437.59a3.313 3.313 0 1 1-6.63 0 3.313 3.313 0 1 1 6.63 0z" style="fill:#c4c5c2" transform="translate(-280.225 484.863) scale(1.0566)"/><path d="M291.69-437.59a3.313 3.313 0 1 1-6.63 0 3.313 3.313 0 1 1 6.63 0z" style="fill:url(#k)" transform="translate(-280.225 484.863) scale(1.0566)"/><path d="M280.47-440.97c-3.58 0-6.47 2.92-6.47 6.5 0 2.37 1.35 4.34 3.25 5.47h6.47c1.9-1.13 3.25-3.13 3.25-5.5 0-3.58-2.92-6.47-6.5-6.47z" style="fill:#c4c5c2" transform="translate(-250.027 460)"/><path d="M280.5-441a6.5 6.5 0 0 0-6.5 6.5c0 2.38 1.34 4.37 3.25 5.5h6.5c1.91-1.13 3.25-3.12 3.25-5.5a6.5 6.5 0 0 0-6.5-6.5z" style="fill:url(#l)" transform="translate(-250.027 460)"/><path d="M291.69-437.59a3.313 3.313 0 1 1-6.63 0 3.313 3.313 0 1 1 6.63 0z" style="fill:url(#m)" transform="translate(-239.197 424.311) scale(.90566)"/><path d="M292.96-437.33c-.01 2.68-3.27 3.71-3.27 3.71s2.35-1.63 2.33-3.71h.94z" style="fill-rule:evenodd;fill:#888a85" transform="translate(-249.027 460)"/><path d="M291.69-437.59a3.313 3.313 0 1 1-6.63 0 3.313 3.313 0 1 1 6.63 0z" style="fill:#c4c5c2" transform="matrix(1.2076 0 0 1.2076 -313.254 555.416)"/><path d="M291.69-437.59a3.313 3.313 0 1 1-6.63 0 3.313 3.313 0 1 1 6.63 0z" style="fill:url(#n)" transform="matrix(1.2076 0 0 1.2076 -313.254 555.416)"/><path d="M280.5-445.5c-2.27 0-4.11 1.55-4.72 3.62-.69-.36-1.44-.62-2.28-.62-2.76 0-5 2.24-5 5 0 .58.16 1.11.34 1.62-1.37.78-2.34 2.19-2.34 3.88 0 2.48 2.02 4.5 4.5 4.5h19c2.48 0 4.5-2.02 4.5-4.5 0-1.69-.97-3.1-2.34-3.88.18-.51.34-1.04.34-1.62 0-2.76-2.24-5-5-5-.84 0-1.59.26-2.28.62-.61-2.07-2.45-3.62-4.72-3.62z" style="stroke:#888a85;stroke-miterlimit:2;fill:#c4c5c2" transform="translate(-264.03 456)"/><path d="M280.5-445c-2.19 0-3.72 1.34-4.4 3.84-.66-.34-1.54-.83-2.35-.83-2.72 0-4.76 1.94-4.76 4.55 0 .54.27 1.33.45 1.82-1.33.73-2.44 1.89-2.44 3.37 0 2.35 1.55 4.25 4.34 4.25h18.32c2.77 0 4.34-1.9 4.34-4.25 0-1.59-1.11-2.67-2.44-3.39.18-.49.47-1.26.47-1.8 0-2.61-2.12-4.57-4.78-4.57-.81 0-1.64.49-2.31.83-.65-2.42-2.25-3.82-4.44-3.82z" style="fill:url(#h)" transform="translate(-264.03 456)"/><path d="M291.69-437.59a3.313 3.313 0 1 1-6.63 0 3.313 3.313 0 1 1 6.63 0z" style="fill:#c4c5c2" transform="translate(-288.228 477.863) scale(1.0566)"/><path d="M291.69-437.59a3.313 3.313 0 1 1-6.63 0 3.313 3.313 0 1 1 6.63 0z" style="fill:url(#i)" transform="translate(-288.228 477.863) scale(1.0566)"/><path d="M271-438h20v9h-20z" style="fill:#c4c5c2" transform="translate(-264.03 456)"/><path d="M291.69-437.59a3.313 3.313 0 1 1-6.63 0 3.313 3.313 0 1 1 6.63 0z" style="fill:#c4c5c2" transform="translate(-254.2 420.311) scale(.90566)"/><path d="M291.69-437.59a3.313 3.313 0 1 1-6.63 0 3.313 3.313 0 1 1 6.63 0z" style="fill:#c4c5c2" transform="translate(-281.228 480.863) scale(1.0566)"/><path d="M291.69-437.59a3.313 3.313 0 1 1-6.63 0 3.313 3.313 0 1 1 6.63 0z" style="fill:url(#j)" transform="translate(-281.228 480.863) scale(1.0566)"/><path d="M291.69-437.59a3.313 3.313 0 1 1-6.63 0 3.313 3.313 0 1 1 6.63 0z" style="fill:#c4c5c2" transform="translate(-295.228 480.863) scale(1.0566)"/><path d="M291.69-437.59a3.313 3.313 0 1 1-6.63 0 3.313 3.313 0 1 1 6.63 0z" style="fill:url(#k)" transform="translate(-295.228 480.863) scale(1.0566)"/><path d="M280.47-440.97c-3.58 0-6.47 2.92-6.47 6.5 0 2.37 1.35 4.34 3.25 5.47h6.47c1.9-1.13 3.25-3.13 3.25-5.5 0-3.58-2.92-6.47-6.5-6.47z" style="fill:#c4c5c2" transform="translate(-265.03 456)"/><path d="M280.5-441a6.5 6.5 0 0 0-6.5 6.5c0 2.38 1.34 4.37 3.25 5.5h6.5c1.91-1.13 3.25-3.12 3.25-5.5a6.5 6.5 0 0 0-6.5-6.5z" style="fill:url(#l)" transform="translate(-265.03 456)"/><path d="M291.69-437.59a3.313 3.313 0 1 1-6.63 0 3.313 3.313 0 1 1 6.63 0z" style="fill:url(#m)" transform="translate(-254.2 420.311) scale(.90566)"/><path d="M292.96-437.33c-.01 2.68-3.27 3.71-3.27 3.71s2.35-1.63 2.33-3.71h.94z" style="fill-rule:evenodd;fill:#888a85" transform="translate(-264.03 456)"/><path d="M291.69-437.59a3.313 3.313 0 1 1-6.63 0 3.313 3.313 0 1 1 6.63 0z" style="fill:#c4c5c2" transform="matrix(1.2076 0 0 1.2076 -328.257 551.416)"/><path d="M291.69-437.59a3.313 3.313 0 1 1-6.63 0 3.313 3.313 0 1 1 6.63 0z" style="fill:url(#n)" transform="matrix(1.2076 0 0 1.2076 -328.257 551.416)"/><path d="M31.82-316.78a2.21 2.21 0 1 1-4.42 0 2.21 2.21 0 1 1 4.42 0z" style="stroke:#729fcf;stroke-miterlimit:0;stroke-width:1.4587;fill:#fff" transform="translate(-11.31 249.168) scale(.68552)"/><path d="M31.82-316.78a2.21 2.21 0 1 1-4.42 0 2.21 2.21 0 1 1 4.42 0z" style="stroke:#729fcf;stroke-miterlimit:0;stroke-width:1.0922;fill:#fff" transform="matrix(.91557 0 0 .91559 -10.6 325.57)"/><path d="M31.82-316.78a2.21 2.21 0 1 1-4.42 0 2.21 2.21 0 1 1 4.42 0z" style="stroke:#729fcf;stroke-miterlimit:0;stroke-width:1.4748;fill:#fff" transform="matrix(.67241 0 0 .68374 -9.94 256.631)"/><path d="M31.82-316.78a2.21 2.21 0 1 1-4.42 0 2.21 2.21 0 1 1 4.42 0z" style="stroke:#729fcf;stroke-miterlimit:0;stroke-width:1.4678;fill:#fff" transform="matrix(.6823 0 0 .68027 18.79 252.505)"/><path d="M31.82-316.78a2.21 2.21 0 1 1-4.42 0 2.21 2.21 0 1 1 4.42 0z" style="stroke:#729fcf;stroke-miterlimit:0;stroke-width:.89917;fill:#fff" transform="matrix(1.1071 0 0 1.1172 -5.79 386.93)"/><path d="M31.82-316.78a2.21 2.21 0 1 1-4.42 0 2.21 2.21 0 1 1 4.42 0z" style="stroke:#729fcf;stroke-miterlimit:0;stroke-width:.91823;fill:#fff" transform="matrix(1.1276 0 0 1.0518 -1.4 373.38)"/><path d="M31.82-316.78a2.21 2.21 0 1 1-4.42 0 2.21 2.21 0 1 1 4.42 0z" style="stroke:#729fcf;stroke-miterlimit:0;stroke-width:1.4641;fill:#fff" transform="matrix(.68552 0 0 .68049 1.68 256.574)"/></svg>