<svg xmlns="http://www.w3.org/2000/svg" viewBox="0 0 48 48"><defs><radialGradient id="b" cx="-33.519" cy="-22.113" r="9.5" gradientTransform="matrix(.48774 1.2924 -1.1027 .49724 -41.774 32.415)" gradientUnits="userSpaceOnUse"><stop offset="0" style="stop-color:#fff7c2;stop-opacity:.6383"/><stop offset=".594" style="stop-color:#fcaf3e;stop-opacity:.18349"/><stop offset=".839" style="stop-color:#fcaf3e;stop-opacity:.50459"/><stop offset="1" style="stop-color:#fcaf3e"/></radialGradient><radialGradient id="a" cx="24" cy="23.382" r="19.142" gradientTransform="matrix(1.0067 0 0 1.0075 -.16 .427)" gradientUnits="userSpaceOnUse"><stop offset="0" style="stop-color:#fff;stop-opacity:0"/><stop offset=".75" style="stop-color:#fff;stop-opacity:0"/><stop offset="1" style="stop-color:#fff"/></radialGradient><linearGradient id="c" x1="-28.969" x2="-37.197" y1="-25.327" y2="-9.559" gradientUnits="userSpaceOnUse"><stop offset="0" style="stop-color:#fff9c6"/><stop offset=".542" style="stop-color:#fff28c"/><stop offset="1" style="stop-color:#ffea85"/></linearGradient></defs><g style="opacity:.7"><path d="m24 2.5-2.375 6.688a15.065 15.065 0 0 1 4.75 0L24 2.5zM8.812 8.781l3.031 6.438a15.22 15.22 0 0 1 3.375-3.375L8.813 8.781zm30.406 0-6.438 3.063a15.22 15.22 0 0 1 3.375 3.375l3.063-6.438zM9.186 21.594 2.498 23.97l6.688 2.375a15.065 15.065 0 0 1 0-4.75zm29.624.031c.124.774.188 1.566.188 2.375s-.064 1.601-.188 2.375L45.498 24l-6.688-2.375zM11.842 32.781 8.81 39.188l6.407-3.032a15.22 15.22 0 0 1-3.375-3.375zm24.312 0a15.197 15.197 0 0 1-3.344 3.344l6.407 3.063-3.063-6.407zm-14.531 6.031 2.375 6.688 2.375-6.688c-.774.124-1.566.188-2.375.188s-1.601-.064-2.375-.188z" style="stroke:#fcaf3e;stroke-linecap:square;stroke-width:.73733;fill:#fce94f"/><path d="m24 5.25-1.344 3.813C23.099 9.023 23.547 9 24 9s.901.023 1.344.063L24 5.25zm-13.219 5.5 1.719 3.625a15.527 15.527 0 0 1 1.906-1.906l-3.625-1.719zm26.469 0-3.625 1.719c.68.569 1.337 1.226 1.906 1.906l1.719-3.625zM9.062 22.625l-3.781 1.344 3.781 1.343C9.025 24.88 9 24.442 9 24c0-.464.02-.922.062-1.375zm29.876.031c.039.443.062.891.062 1.344s-.023.901-.062 1.344L42.719 24l-3.781-1.344zm-3.407 10.938a15.571 15.571 0 0 1-1.906 1.937l3.625 1.719-1.719-3.656zm-23.031.031-1.719 3.594 3.594-1.719a15.374 15.374 0 0 1-1.875-1.875zm10.156 5.313L24 42.719l1.344-3.781c-.443.039-.891.062-1.344.062s-.901-.023-1.344-.062z" style="stroke:url(#a);stroke-linecap:square;stroke-width:.84646;fill:none"/></g><path d="M-22.5-17.5a9.5 9.5 0 1 1-19 0 9.5 9.5 0 1 1 19 0z" style="stroke:#fcaf3e;stroke-linecap:square;stroke-width:.75991;fill:#ffee54" transform="matrix(.77806 -1.0613 1.0613 .77806 67.48 3.641)"/><path d="M-22.5-17.5a9.5 9.5 0 1 1-19 0 9.5 9.5 0 1 1 19 0z" style="fill:url(#b)" transform="matrix(1.2443 -.16771 .21664 1.2518 67.616 40.527)"/><path d="M-22.5-17.5a9.5 9.5 0 1 1-19 0 9.5 9.5 0 1 1 19 0z" style="stroke:url(#c);stroke-linecap:square;stroke-width:.82602;fill:none" transform="matrix(.71579 -.97635 .97635 .71579 64 5.27)"/></svg>