<svg xmlns="http://www.w3.org/2000/svg" xmlns:xlink="http://www.w3.org/1999/xlink" viewBox="0 0 48 48"><defs><linearGradient xlink:href="#a" id="h" x1="284.8" x2="288.9" y1="-441.23" y2="-436.83" gradientUnits="userSpaceOnUse"/><linearGradient xlink:href="#a" id="g" x1="286.67" x2="289.77" y1="-439.48" y2="-436.71" gradientUnits="userSpaceOnUse"/><linearGradient xlink:href="#a" id="f" x1="275.94" x2="279.98" y1="-437.11" y2="-431.92" gradientUnits="userSpaceOnUse"/><linearGradient xlink:href="#a" id="e" x1="285.94" x2="289.39" y1="-439.94" y2="-436.44" gradientUnits="userSpaceOnUse"/><linearGradient xlink:href="#a" id="d" x1="286.51" x2="289.85" y1="-441.29" y2="-436.14" gradientUnits="userSpaceOnUse"/><linearGradient xlink:href="#a" id="c" x1="287.52" x2="289.68" y1="-439.75" y2="-436.32" gradientUnits="userSpaceOnUse"/><linearGradient xlink:href="#a" id="b" x1="271.02" x2="285.03" y1="-441.05" y2="-431.97" gradientUnits="userSpaceOnUse"/><linearGradient id="a"><stop offset="0" style="stop-color:#fff"/><stop offset="1" style="stop-color:#fff;stop-opacity:0"/></linearGradient><linearGradient id="k" x1="-28.969" x2="-37.197" y1="-25.327" y2="-9.559" gradientUnits="userSpaceOnUse"><stop offset="0" style="stop-color:#fff9c6"/><stop offset=".542" style="stop-color:#fff28c"/><stop offset="1" style="stop-color:#ffea85"/></linearGradient><radialGradient id="j" cx="-33.519" cy="-22.113" r="9.5" gradientTransform="matrix(.48774 1.2924 -1.1027 .49724 -41.774 32.415)" gradientUnits="userSpaceOnUse"><stop offset="0" style="stop-color:#fff7c2;stop-opacity:.6383"/><stop offset=".594" style="stop-color:#fcaf3e;stop-opacity:.18349"/><stop offset=".839" style="stop-color:#fcaf3e;stop-opacity:.50459"/><stop offset="1" style="stop-color:#fcaf3e"/></radialGradient><radialGradient id="i" cx="24" cy="23.382" r="19.142" gradientTransform="matrix(1.0067 0 0 1.0075 -.16 .427)" gradientUnits="userSpaceOnUse"><stop offset="0" style="stop-color:#fff;stop-opacity:0"/><stop offset=".75" style="stop-color:#fff;stop-opacity:0"/><stop offset="1" style="stop-color:#fff"/></radialGradient></defs><path d="M280.5-445.5c-2.27 0-4.11 1.55-4.72 3.62-.69-.36-1.44-.62-2.28-.62-2.76 0-5 2.24-5 5 0 .58.16 1.11.34 1.62-1.37.78-2.34 2.19-2.34 3.88 0 2.48 2.02 4.5 4.5 4.5h19c2.48 0 4.5-2.02 4.5-4.5 0-1.69-.97-3.1-2.34-3.88.18-.51.34-1.04.34-1.62 0-2.76-2.24-5-5-5-.84 0-1.59.26-2.28.62-.61-2.07-2.45-3.62-4.72-3.62z" style="stroke:#888a85;stroke-miterlimit:2;fill:#c4c5c2" transform="translate(-263.99 459.99)"/><path d="M280.5-445c-2.19 0-3.72 1.34-4.4 3.84-.66-.34-1.54-.83-2.35-.83-2.72 0-4.76 1.94-4.76 4.55 0 .54.27 1.33.45 1.82-1.33.73-2.44 1.89-2.44 3.37 0 2.35 1.55 4.25 4.34 4.25h18.32c2.77 0 4.34-1.9 4.34-4.25 0-1.59-1.11-2.67-2.44-3.39.18-.49.47-1.26.47-1.8 0-2.61-2.12-4.57-4.78-4.57-.81 0-1.64.49-2.31.83-.65-2.42-2.25-3.82-4.44-3.82z" style="fill:url(#b)" transform="translate(-263.99 459.99)"/><path d="M291.69-437.59a3.313 3.313 0 1 1-6.63 0 3.313 3.313 0 1 1 6.63 0z" style="fill:#c4c5c2" transform="translate(-288.188 481.853) scale(1.0566)"/><path d="M291.69-437.59a3.313 3.313 0 1 1-6.63 0 3.313 3.313 0 1 1 6.63 0z" style="fill:url(#c)" transform="translate(-288.188 481.853) scale(1.0566)"/><path d="M271-438h20v9h-20z" style="fill:#c4c5c2" transform="translate(-263.99 459.99)"/><path d="M291.69-437.59a3.313 3.313 0 1 1-6.63 0 3.313 3.313 0 1 1 6.63 0z" style="fill:#c4c5c2" transform="translate(-254.16 424.301) scale(.90566)"/><path d="M291.69-437.59a3.313 3.313 0 1 1-6.63 0 3.313 3.313 0 1 1 6.63 0z" style="fill:#c4c5c2" transform="translate(-281.188 484.853) scale(1.0566)"/><path d="M291.69-437.59a3.313 3.313 0 1 1-6.63 0 3.313 3.313 0 1 1 6.63 0z" style="fill:url(#d)" transform="translate(-281.188 484.853) scale(1.0566)"/><path d="M291.69-437.59a3.313 3.313 0 1 1-6.63 0 3.313 3.313 0 1 1 6.63 0z" style="fill:#c4c5c2" transform="translate(-295.188 484.853) scale(1.0566)"/><path d="M291.69-437.59a3.313 3.313 0 1 1-6.63 0 3.313 3.313 0 1 1 6.63 0z" style="fill:url(#e)" transform="translate(-295.188 484.853) scale(1.0566)"/><path d="M280.47-440.97c-3.58 0-6.47 2.92-6.47 6.5 0 2.37 1.35 4.34 3.25 5.47h6.47c1.9-1.13 3.25-3.13 3.25-5.5 0-3.58-2.92-6.47-6.5-6.47z" style="fill:#c4c5c2" transform="translate(-264.99 459.99)"/><path d="M280.5-441a6.5 6.5 0 0 0-6.5 6.5c0 2.38 1.34 4.37 3.25 5.5h6.5c1.91-1.13 3.25-3.12 3.25-5.5a6.5 6.5 0 0 0-6.5-6.5z" style="fill:url(#f)" transform="translate(-264.99 459.99)"/><path d="M291.69-437.59a3.313 3.313 0 1 1-6.63 0 3.313 3.313 0 1 1 6.63 0z" style="fill:url(#g)" transform="translate(-254.16 424.301) scale(.90566)"/><path d="M292.96-437.33c-.01 2.68-3.27 3.71-3.27 3.71s2.35-1.63 2.33-3.71h.94z" style="fill-rule:evenodd;fill:#888a85" transform="translate(-263.99 459.99)"/><path d="M291.69-437.59a3.313 3.313 0 1 1-6.63 0 3.313 3.313 0 1 1 6.63 0z" style="fill:#c4c5c2" transform="matrix(1.2076 0 0 1.2076 -328.217 555.406)"/><path d="M291.69-437.59a3.313 3.313 0 1 1-6.63 0 3.313 3.313 0 1 1 6.63 0z" style="fill:url(#h)" transform="matrix(1.2076 0 0 1.2076 -328.217 555.406)"/><g style="opacity:.7"><path d="m24 2.5-2.375 6.688a15.065 15.065 0 0 1 4.75 0L24 2.5zM8.812 8.781l3.031 6.438a15.22 15.22 0 0 1 3.375-3.375L8.813 8.781zm30.406 0-6.438 3.063a15.22 15.22 0 0 1 3.375 3.375l3.063-6.438zM9.186 21.594 2.498 23.97l6.688 2.375a15.065 15.065 0 0 1 0-4.75zm29.624.031c.124.774.188 1.566.188 2.375s-.064 1.601-.188 2.375L45.498 24l-6.688-2.375zM11.842 32.781 8.81 39.188l6.407-3.032a15.22 15.22 0 0 1-3.375-3.375zm24.312 0a15.197 15.197 0 0 1-3.344 3.344l6.407 3.063-3.063-6.407zm-14.531 6.031 2.375 6.688 2.375-6.688c-.774.124-1.566.188-2.375.188s-1.601-.064-2.375-.188z" style="stroke:#fcaf3e;stroke-linecap:square;stroke-width:.73733;fill:#fce94f"/><path d="m24 5.25-1.344 3.813C23.099 9.023 23.547 9 24 9s.901.023 1.344.063L24 5.25zm-13.219 5.5 1.719 3.625a15.527 15.527 0 0 1 1.906-1.906l-3.625-1.719zm26.469 0-3.625 1.719c.68.569 1.337 1.226 1.906 1.906l1.719-3.625zM9.062 22.625l-3.781 1.344 3.781 1.343C9.025 24.88 9 24.442 9 24c0-.464.02-.922.062-1.375zm29.876.031c.039.443.062.891.062 1.344s-.023.901-.062 1.344L42.719 24l-3.781-1.344zm-3.407 10.938a15.571 15.571 0 0 1-1.906 1.937l3.625 1.719-1.719-3.656zm-23.031.031-1.719 3.594 3.594-1.719a15.374 15.374 0 0 1-1.875-1.875zm10.156 5.313L24 42.719l1.344-3.781c-.443.039-.891.062-1.344.062s-.901-.023-1.344-.062z" style="stroke:url(#i);stroke-linecap:square;stroke-width:.84646;fill:none"/></g><path d="M-22.5-17.5a9.5 9.5 0 1 1-19 0 9.5 9.5 0 1 1 19 0z" style="stroke:#fcaf3e;stroke-linecap:square;stroke-width:.75991;fill:#ffee54" transform="matrix(.77806 -1.0613 1.0613 .77806 67.48 3.641)"/><path d="M-22.5-17.5a9.5 9.5 0 1 1-19 0 9.5 9.5 0 1 1 19 0z" style="fill:url(#j)" transform="matrix(1.2443 -.16771 .21664 1.2518 67.616 40.527)"/><path d="M-22.5-17.5a9.5 9.5 0 1 1-19 0 9.5 9.5 0 1 1 19 0z" style="stroke:url(#k);stroke-linecap:square;stroke-width:.82602;fill:none" transform="matrix(.71579 -.97635 .97635 .71579 64 5.27)"/><path d="M280.5-445.5c-2.27 0-4.11 1.55-4.72 3.62-.69-.36-1.44-.62-2.28-.62-2.76 0-5 2.24-5 5 0 .58.16 1.11.34 1.62-1.37.78-2.34 2.19-2.34 3.88 0 2.48 2.02 4.5 4.5 4.5h19c2.48 0 4.5-2.02 4.5-4.5 0-1.69-.97-3.1-2.34-3.88.18-.51.34-1.04.34-1.62 0-2.76-2.24-5-5-5-.84 0-1.59.26-2.28.62-.61-2.07-2.45-3.62-4.72-3.62z" style="stroke:#888a85;stroke-miterlimit:2;fill:#c4c5c2" transform="translate(-248.99 467.99)"/><path d="M280.5-445c-2.19 0-3.72 1.34-4.4 3.84-.66-.34-1.54-.83-2.35-.83-2.72 0-4.76 1.94-4.76 4.55 0 .54.27 1.33.45 1.82-1.33.73-2.44 1.89-2.44 3.37 0 2.35 1.55 4.25 4.34 4.25h18.32c2.77 0 4.34-1.9 4.34-4.25 0-1.59-1.11-2.67-2.44-3.39.18-.49.47-1.26.47-1.8 0-2.61-2.12-4.57-4.78-4.57-.81 0-1.64.49-2.31.83-.65-2.42-2.25-3.82-4.44-3.82z" style="fill:url(#b)" transform="translate(-248.99 467.99)"/><path d="M291.69-437.59a3.313 3.313 0 1 1-6.63 0 3.313 3.313 0 1 1 6.63 0z" style="fill:#c4c5c2" transform="translate(-273.188 489.853) scale(1.0566)"/><path d="M291.69-437.59a3.313 3.313 0 1 1-6.63 0 3.313 3.313 0 1 1 6.63 0z" style="fill:url(#c)" transform="translate(-273.188 489.853) scale(1.0566)"/><path d="M271-438h20v9h-20z" style="fill:#c4c5c2" transform="translate(-248.99 467.99)"/><path d="M291.69-437.59a3.313 3.313 0 1 1-6.63 0 3.313 3.313 0 1 1 6.63 0z" style="fill:#c4c5c2" transform="translate(-239.16 432.301) scale(.90566)"/><path d="M291.69-437.59a3.313 3.313 0 1 1-6.63 0 3.313 3.313 0 1 1 6.63 0z" style="fill:#c4c5c2" transform="translate(-266.188 492.853) scale(1.0566)"/><path d="M291.69-437.59a3.313 3.313 0 1 1-6.63 0 3.313 3.313 0 1 1 6.63 0z" style="fill:url(#d)" transform="translate(-266.188 492.853) scale(1.0566)"/><path d="M291.69-437.59a3.313 3.313 0 1 1-6.63 0 3.313 3.313 0 1 1 6.63 0z" style="fill:#c4c5c2" transform="translate(-280.188 492.853) scale(1.0566)"/><path d="M291.69-437.59a3.313 3.313 0 1 1-6.63 0 3.313 3.313 0 1 1 6.63 0z" style="fill:url(#e)" transform="translate(-280.188 492.853) scale(1.0566)"/><path d="M280.47-440.97c-3.58 0-6.47 2.92-6.47 6.5 0 2.37 1.35 4.34 3.25 5.47h6.47c1.9-1.13 3.25-3.13 3.25-5.5 0-3.58-2.92-6.47-6.5-6.47z" style="fill:#c4c5c2" transform="translate(-249.99 467.99)"/><path d="M280.5-441a6.5 6.5 0 0 0-6.5 6.5c0 2.38 1.34 4.37 3.25 5.5h6.5c1.91-1.13 3.25-3.12 3.25-5.5a6.5 6.5 0 0 0-6.5-6.5z" style="fill:url(#f)" transform="translate(-249.99 467.99)"/><path d="M291.69-437.59a3.313 3.313 0 1 1-6.63 0 3.313 3.313 0 1 1 6.63 0z" style="fill:url(#g)" transform="translate(-239.16 432.301) scale(.90566)"/><path d="M292.96-437.33c-.01 2.68-3.27 3.71-3.27 3.71s2.35-1.63 2.33-3.71h.94z" style="fill-rule:evenodd;fill:#888a85" transform="translate(-248.99 467.99)"/><path d="M291.69-437.59a3.313 3.313 0 1 1-6.63 0 3.313 3.313 0 1 1 6.63 0z" style="fill:#c4c5c2" transform="matrix(1.2076 0 0 1.2076 -313.217 563.406)"/><path d="M291.69-437.59a3.313 3.313 0 1 1-6.63 0 3.313 3.313 0 1 1 6.63 0z" style="fill:url(#h)" transform="matrix(1.2076 0 0 1.2076 -313.217 563.406)"/></svg>