<svg xmlns="http://www.w3.org/2000/svg" xmlns:xlink="http://www.w3.org/1999/xlink" viewBox="0 0 48 48"><defs><linearGradient id="g" x1="238" x2="245.65" y1="-388.47" y2="-382.65" gradientUnits="userSpaceOnUse"><stop offset="0" style="stop-color:#fff"/><stop offset="1" style="stop-color:#fff;stop-opacity:0"/></linearGradient><linearGradient id="f" x1="230.88" x2="235.26" y1="-390.44" y2="-386.96" gradientUnits="userSpaceOnUse"><stop offset="0" style="stop-color:#fff"/><stop offset="1" style="stop-color:#fff;stop-opacity:0"/></linearGradient><linearGradient id="e" x1="246.74" x2="252.7" y1="-391.31" y2="-385.35" gradientUnits="userSpaceOnUse"><stop offset="0" style="stop-color:#fff"/><stop offset="1" style="stop-color:#fff;stop-opacity:0"/></linearGradient><linearGradient id="d" x1="240.07" x2="245.83" y1="-393.41" y2="-388.55" gradientUnits="userSpaceOnUse"><stop offset="0" style="stop-color:#fff"/><stop offset="1" style="stop-color:#fff;stop-opacity:0"/></linearGradient><linearGradient id="c" x1="228.5" x2="266.36" y1="-392.31" y2="-379.27" gradientTransform="translate(69 155)" gradientUnits="userSpaceOnUse"><stop offset="0" style="stop-color:#fff"/><stop offset="1" style="stop-color:#fff;stop-opacity:0"/></linearGradient><linearGradient xlink:href="#a" id="p" x1="284.8" x2="288.9" y1="-441.23" y2="-436.83" gradientUnits="userSpaceOnUse"/><linearGradient xlink:href="#a" id="o" x1="286.67" x2="289.77" y1="-439.48" y2="-436.71" gradientUnits="userSpaceOnUse"/><linearGradient xlink:href="#a" id="n" x1="275.94" x2="279.98" y1="-437.11" y2="-431.92" gradientTransform="translate(-35 207)" gradientUnits="userSpaceOnUse"/><linearGradient xlink:href="#a" id="m" x1="285.94" x2="289.39" y1="-439.94" y2="-436.44" gradientUnits="userSpaceOnUse"/><linearGradient xlink:href="#a" id="l" x1="286.51" x2="289.85" y1="-441.29" y2="-436.14" gradientUnits="userSpaceOnUse"/><linearGradient xlink:href="#a" id="k" x1="287.52" x2="289.68" y1="-439.75" y2="-436.32" gradientUnits="userSpaceOnUse"/><linearGradient xlink:href="#a" id="j" x1="271.02" x2="285.03" y1="-441.05" y2="-431.97" gradientTransform="translate(-34 207)" gradientUnits="userSpaceOnUse"/><linearGradient xlink:href="#a" id="i" x1="-190.48" x2="-196.19" y1="-332.51" y2="-328.53" gradientTransform="translate(14.159 7.083)" gradientUnits="userSpaceOnUse"/><linearGradient xlink:href="#b" id="h" x1="-191.29" x2="-192.41" y1="-328.08" y2="-315.33" gradientTransform="translate(13.805 2.84)" gradientUnits="userSpaceOnUse"/><linearGradient id="a"><stop offset="0" style="stop-color:#fff"/><stop offset="1" style="stop-color:#fff;stop-opacity:0"/></linearGradient><linearGradient id="b"><stop offset="0" style="stop-color:#fcaf3e"/><stop offset="1" style="stop-color:#fcaf3e;stop-opacity:0"/></linearGradient><radialGradient xlink:href="#a" id="q" cx="-229.75" cy="-343.96" r="14.501" gradientTransform="matrix(.93095 0 0 .44824 245.36 184.93)" gradientUnits="userSpaceOnUse"/><radialGradient xlink:href="#a" id="r" cx="-229.75" cy="-343.96" r="14.501" gradientTransform="matrix(.93095 0 0 .44824 229.93 180.93)" gradientUnits="userSpaceOnUse"/></defs><path d="M311.5-243c-2.77 0-5.11 1.57-6.41 3.81-.94-.47-1.96-.81-3.09-.81-3.86 0-7 3.14-7 7s3.14 7 7 7c2.42 0 4.43-1.32 5.69-3.19 1.13.69 2.39 1.19 3.81 1.19.91 0 1.75-.23 2.56-.53.51.87 1.18 1.58 2 2.16 0 .13-.06.24-.06.37 0 3.86 3.14 7 7 7s7-3.14 7-7c0-2.37-1.26-4.36-3.06-5.62 0-.14.06-.25.06-.38 0-3.86-3.14-7-7-7-.62 0-1.18.22-1.75.38-1.19-2.56-3.74-4.38-6.75-4.38z" style="fill:#555753" transform="translate(-287.02 245)"/><path d="M311.5-242c-2.78 0-5.13 1.76-6.06 4.22-.99-.71-2.13-1.22-3.44-1.22-3.31 0-6 2.69-6 6s2.69 6 6 6c2.43 0 4.49-1.46 5.44-3.53 1.12.92 2.5 1.53 4.06 1.53 1.07 0 2.04-.32 2.94-.78.4 1 1.1 1.79 1.94 2.44-.19.59-.38 1.19-.38 1.84a6.5 6.5 0 1 0 13 0c0-2.36-1.33-4.33-3.22-5.47.06-.35.22-.66.22-1.03 0-3.31-2.69-6-6-6-.85 0-1.67.18-2.41.5-.85-2.59-3.21-4.5-6.09-4.5z" style="fill:url(#c)" transform="translate(-287.02 245)"/><path d="M248.55-383.67a6.74 6.74 0 1 1-13.48 0 6.74 6.74 0 1 1 13.48 0z" style="fill:#888a85" transform="translate(-197.731 389.53) scale(.96445)"/><path d="M250.18-389.3a6.231 6.231 0 1 1-12.46 0 6.231 6.231 0 1 1 12.46 0z" style="fill:#888a85" transform="translate(-190.839 353.11) scale(.88263)"/><path d="M250.18-389.3a6.231 6.231 0 1 1-12.46 0 6.231 6.231 0 1 1 12.46 0z" style="opacity:.49444;fill:url(#d)" transform="translate(-190.839 353.11) scale(.88263)"/><path d="M257.25-385.79a6.032 6.032 0 1 1-12.06 0 6.032 6.032 0 1 1 12.06 0z" style="fill:#888a85" transform="translate(-196.566 365.23) scale(.91173)"/><path d="M257.25-385.79a6.032 6.032 0 1 1-12.06 0 6.032 6.032 0 1 1 12.06 0z" style="opacity:.49444;fill:url(#e)" transform="translate(-196.566 365.23) scale(.91173)"/><path d="M237.81-387.89a4.375 4.375 0 1 1-8.75 0 4.375 4.375 0 1 1 8.75 0z" style="fill:#888a85" transform="translate(-251.788 455.28) scale(1.1428)"/><path d="M237.81-387.89a4.375 4.375 0 1 1-8.75 0 4.375 4.375 0 1 1 8.75 0z" style="opacity:.49444;fill:url(#f)" transform="translate(-251.788 455.28) scale(1.1428)"/><path d="M248.55-383.67a6.74 6.74 0 1 1-13.48 0 6.74 6.74 0 1 1 13.48 0z" style="fill:#888a85" transform="translate(-227.171 414.49) scale(1.0386)"/><path d="M248.55-383.67a6.74 6.74 0 1 1-13.48 0 6.74 6.74 0 1 1 13.48 0z" style="opacity:.49444;fill:url(#g)" transform="translate(-227.171 414.49) scale(1.0386)"/><path d="m-173.25-327.59-3.12 4.28h3.78s-2.7 4.52-7.58 12.92c2.1-7.94 2.96-10.97 2.96-10.97h-5.17l4.05-6.23h5.08z" style="fill-rule:evenodd;stroke:url(#h);stroke-width:1px;fill:#edd400" transform="translate(208.86 357.89)"/><path d="m-173.76-327.84-3.74 5.16 3.95-.18s-.14.46-5.01 8.86c2.1-7.95 2.07-7.96 2.07-7.96l-4.9.09 3.69-5.71 3.94-.26z" style="fill:url(#i);fill-rule:evenodd" transform="translate(208.86 357.89)"/><path d="M246.5-238.5c-2.27 0-4.11 1.55-4.72 3.63-.69-.37-1.44-.63-2.28-.63-2.76 0-5 2.24-5 5 0 .58.16 1.11.34 1.63-1.37.77-2.34 2.18-2.34 3.87 0 2.48 2.02 4.5 4.5 4.5h19c2.48 0 4.5-2.02 4.5-4.5 0-1.69-.97-3.1-2.34-3.87.18-.52.34-1.05.34-1.63 0-2.76-2.24-5-5-5-.84 0-1.59.26-2.28.63-.61-2.08-2.45-3.63-4.72-3.63z" style="stroke:#555753;stroke-miterlimit:2;fill:#888a85" transform="translate(-215.01 253)"/><path d="M246.5-238c-2.19 0-3.72 1.34-4.4 3.84-.66-.34-1.54-.83-2.35-.83-2.72 0-4.76 1.94-4.76 4.55 0 .54.27 1.33.45 1.82-1.33.73-2.44 1.89-2.44 3.37 0 2.35 1.55 4.25 4.34 4.25h18.32c2.77 0 4.34-1.9 4.34-4.25 0-1.59-1.11-2.67-2.44-3.39.18-.49.47-1.26.47-1.8 0-2.61-2.12-4.57-4.78-4.57-.81 0-1.64.49-2.31.83-.65-2.42-2.25-3.82-4.44-3.82z" style="fill:url(#j)" transform="translate(-215.01 253)"/><path d="M291.69-437.59a3.313 3.313 0 1 1-6.63 0 3.313 3.313 0 1 1 6.63 0z" style="fill:#888a85" transform="translate(-273.208 481.86) scale(1.0566)"/><path d="M291.69-437.59a3.313 3.313 0 1 1-6.63 0 3.313 3.313 0 1 1 6.63 0z" style="opacity:.47778;fill:url(#k)" transform="translate(-273.208 481.86) scale(1.0566)"/><path d="M237-231h20v9h-20z" style="fill:#888a85" transform="translate(-215.01 253)"/><path d="M291.69-437.59a3.313 3.313 0 1 1-6.63 0 3.313 3.313 0 1 1 6.63 0z" style="fill:#888a85" transform="translate(-239.18 424.31) scale(.90566)"/><path d="M291.69-437.59a3.313 3.313 0 1 1-6.63 0 3.313 3.313 0 1 1 6.63 0z" style="fill:#888a85" transform="translate(-266.208 484.86) scale(1.0566)"/><path d="M291.69-437.59a3.313 3.313 0 1 1-6.63 0 3.313 3.313 0 1 1 6.63 0z" style="opacity:.47778;fill:url(#l)" transform="translate(-266.208 484.86) scale(1.0566)"/><path d="M291.69-437.59a3.313 3.313 0 1 1-6.63 0 3.313 3.313 0 1 1 6.63 0z" style="fill:#888a85" transform="translate(-280.208 484.86) scale(1.0566)"/><path d="M291.69-437.59a3.313 3.313 0 1 1-6.63 0 3.313 3.313 0 1 1 6.63 0z" style="opacity:.47778;fill:url(#m)" transform="translate(-280.208 484.86) scale(1.0566)"/><path d="M245.47-233.97c-3.58 0-6.47 2.92-6.47 6.5 0 2.37 1.35 4.34 3.25 5.47h6.47c1.9-1.13 3.25-3.13 3.25-5.5 0-3.58-2.92-6.47-6.5-6.47z" style="fill:#888a85" transform="translate(-215.01 253)"/><path d="M245.5-234a6.5 6.5 0 0 0-6.5 6.5c0 2.38 1.34 4.37 3.25 5.5h6.5c1.91-1.13 3.25-3.12 3.25-5.5a6.5 6.5 0 0 0-6.5-6.5z" style="opacity:.47778;fill:url(#n)" transform="translate(-215.01 253)"/><path d="M291.69-437.59a3.313 3.313 0 1 1-6.63 0 3.313 3.313 0 1 1 6.63 0z" style="opacity:.47778;fill:url(#o)" transform="translate(-239.18 424.31) scale(.90566)"/><path d="M258.96-230.33c-.01 2.68-3.27 3.71-3.27 3.71s2.35-1.63 2.33-3.7l.94-.01z" style="fill-rule:evenodd;fill:#555753" transform="translate(-215.01 253)"/><path d="M291.69-437.59a3.313 3.313 0 1 1-6.63 0 3.313 3.313 0 1 1 6.63 0z" style="fill:#888a85" transform="translate(-313.237 555.42) scale(1.2075)"/><path d="M291.69-437.59a3.313 3.313 0 1 1-6.63 0 3.313 3.313 0 1 1 6.63 0z" style="opacity:.47778;fill:url(#p)" transform="translate(-313.237 555.42) scale(1.2075)"/><path d="m-173.25-327.59-3.12 4.28h3.78s-2.7 4.52-7.58 12.92c2.1-7.94 2.96-10.97 2.96-10.97h-5.17l4.05-6.23h5.08z" style="fill-rule:evenodd;stroke:url(#h);stroke-width:1px;fill:#edd400" transform="translate(192.86 354.89)"/><path d="m-173.76-327.84-3.74 5.16 3.95-.18s-.14.46-5.01 8.86c2.1-7.95 2.07-7.96 2.07-7.96l-4.9.09 3.69-5.71 3.94-.26z" style="fill-rule:evenodd;fill:url(#i)" transform="translate(192.86 354.89)"/><path d="M31.626 15c-2 0-3.685 1.079-4.53 2.614a5.53 5.53 0 0 0-1.926-.353c-2.83 0-5.118 2.118-5.118 4.718 0 .453.145.856.275 1.272-1.382.865-2.347 2.253-2.347 3.904 0 2.653.651 4.994 5.227 4.806.045-.002 17.452.097 17.701-.018 3.085.226 4.072-2.445 4.072-4.699 0-1.701-.837-3.05-2.31-3.878.048-.258-.038-.551-.038-.822 0-2.599-2.306-4.718-5.136-4.718-.394 0-.732.135-1.101.212C35.657 16.27 33.81 15 31.626 15z" style="fill:url(#q)"/><path d="M246.5-238.5c-2.27 0-4.11 1.55-4.72 3.63-.69-.37-1.44-.63-2.28-.63-2.76 0-5 2.24-5 5 0 .58.16 1.11.34 1.63-1.37.77-2.34 2.18-2.34 3.87 0 2.48 2.02 4.5 4.5 4.5h19c2.48 0 4.5-2.02 4.5-4.5 0-1.69-.97-3.1-2.34-3.87.18-.52.34-1.05.34-1.63 0-2.76-2.24-5-5-5-.84 0-1.59.26-2.28.63-.61-2.08-2.45-3.63-4.72-3.63z" style="stroke:#555753;stroke-miterlimit:2;fill:#888a85" transform="translate(-230.02 248.98)"/><path d="M246.5-238c-2.19 0-3.72 1.34-4.4 3.84-.66-.34-1.54-.83-2.35-.83-2.72 0-4.76 1.94-4.76 4.55 0 .54.27 1.33.45 1.82-1.33.73-2.44 1.89-2.44 3.37 0 2.35 1.55 4.25 4.34 4.25h18.32c2.77 0 4.34-1.9 4.34-4.25 0-1.59-1.11-2.67-2.44-3.39.18-.49.47-1.26.47-1.8 0-2.61-2.12-4.57-4.78-4.57-.81 0-1.64.49-2.31.83-.65-2.42-2.25-3.82-4.44-3.82z" style="fill:url(#j)" transform="translate(-230.02 248.98)"/><path d="M291.69-437.59a3.313 3.313 0 1 1-6.63 0 3.313 3.313 0 1 1 6.63 0z" style="fill:#888a85" transform="translate(-288.218 477.84) scale(1.0566)"/><path d="M291.69-437.59a3.313 3.313 0 1 1-6.63 0 3.313 3.313 0 1 1 6.63 0z" style="opacity:.47778;fill:url(#k)" transform="translate(-288.218 477.84) scale(1.0566)"/><path d="M237-231h20v9h-20z" style="fill:#888a85" transform="translate(-230.02 248.98)"/><path d="M291.69-437.59a3.313 3.313 0 1 1-6.63 0 3.313 3.313 0 1 1 6.63 0z" style="fill:#888a85" transform="translate(-254.19 420.29) scale(.90566)"/><path d="M291.69-437.59a3.313 3.313 0 1 1-6.63 0 3.313 3.313 0 1 1 6.63 0z" style="fill:#888a85" transform="translate(-281.218 480.84) scale(1.0566)"/><path d="M291.69-437.59a3.313 3.313 0 1 1-6.63 0 3.313 3.313 0 1 1 6.63 0z" style="opacity:.47778;fill:url(#l)" transform="translate(-281.218 480.84) scale(1.0566)"/><path d="M291.69-437.59a3.313 3.313 0 1 1-6.63 0 3.313 3.313 0 1 1 6.63 0z" style="fill:#888a85" transform="translate(-295.218 480.84) scale(1.0566)"/><path d="M291.69-437.59a3.313 3.313 0 1 1-6.63 0 3.313 3.313 0 1 1 6.63 0z" style="opacity:.47778;fill:url(#m)" transform="translate(-295.218 480.84) scale(1.0566)"/><path d="M245.47-233.97c-3.58 0-6.47 2.92-6.47 6.5 0 2.37 1.35 4.34 3.25 5.47h6.47c1.9-1.13 3.25-3.13 3.25-5.5 0-3.58-2.92-6.47-6.5-6.47z" style="fill:#888a85" transform="translate(-230.02 248.98)"/><path d="M245.5-234a6.5 6.5 0 0 0-6.5 6.5c0 2.38 1.34 4.37 3.25 5.5h6.5c1.91-1.13 3.25-3.12 3.25-5.5a6.5 6.5 0 0 0-6.5-6.5z" style="opacity:.47778;fill:url(#n)" transform="translate(-230.02 248.98)"/><path d="M291.69-437.59a3.313 3.313 0 1 1-6.63 0 3.313 3.313 0 1 1 6.63 0z" style="opacity:.47778;fill:url(#o)" transform="translate(-254.19 420.29) scale(.90566)"/><path d="M258.96-230.33c-.01 2.68-3.27 3.71-3.27 3.71s2.35-1.63 2.33-3.7l.94-.01z" style="fill-rule:evenodd;fill:#555753" transform="translate(-230.02 248.98)"/><path d="M291.69-437.59a3.313 3.313 0 1 1-6.63 0 3.313 3.313 0 1 1 6.63 0z" style="fill:#888a85" transform="translate(-328.247 551.4) scale(1.2075)"/><path d="M291.69-437.59a3.313 3.313 0 1 1-6.63 0 3.313 3.313 0 1 1 6.63 0z" style="opacity:.47778;fill:url(#p)" transform="translate(-328.247 551.4) scale(1.2075)"/><path d="M16.189 11c-2 0-3.686 1.08-4.531 2.615a5.502 5.502 0 0 0-1.926-.353c-2.83 0-5.117 2.118-5.117 4.717 0 .454.144.857.275 1.272-1.382.865-2.348 2.254-2.348 3.905 0 2.653.652 4.993 5.228 4.806.045-.002 17.45.097 17.7-.018 3.085.226 4.072-2.446 4.072-4.7 0-1.7-.837-3.05-2.31-3.877.049-.259-.038-.551-.038-.823 0-2.599-2.305-4.717-5.136-4.717-.393 0-.732.135-1.1.212-.74-1.768-2.585-3.039-4.77-3.039z" style="fill:url(#r)"/></svg>